{
	"asset":{
		"generator":"Khronos glTF Blender I/O v4.3.47",
		"version":"2.0"
	},
	"scene":0,
	"scenes":[
		{
			"name":"Scene",
			"nodes":[
				0,
				1,
				2,
				3
			]
		}
	],
	"nodes":[
		{
			"mesh":0,
			"name":"Cube"
		},
		{
			"camera":0,
			"name":"Camera",
			"rotation":[
				-0.22000709176063538,
				-0.3732242286205292,
				-0.091580331325531,
				0.896612286567688
			],
			"translation":[
				-0.044076040387153625,
				1.4537103176116943,
				0.3296845555305481
			]
		},
		{
			"mesh":1,
			"name":"Torus.005"
		},
		{
			"mesh":2,
			"name":"Angel"
		}
	],
	"cameras":[
		{
			"name":"Camera",
			"perspective":{
				"aspectRatio":1.7777777777777777,
				"yfov":0.6401186097356439,
				"zfar":1000,
				"znear":0.10000000149011612
			},
			"type":"perspective"
		}
	],
	"materials":[
		{
			"doubleSided":true,
			"name":"White",
			"pbrMetallicRoughness":{
				"baseColorFactor":[
					0.8772650957107544,
					0.8772650957107544,
					0.8772650957107544,
					1
				],
				"metallicFactor":0,
				"roughnessFactor":0.5
			}
		},
		{
			"doubleSided":true,
			"emissiveFactor":[
				0.5095528364181519,
				0.6608688831329346,
				1
			],
			"name":"Light",
			"pbrMetallicRoughness":{
				"baseColorFactor":[
					0.800000011920929,
					0.800000011920929,
					0.800000011920929,
					1
				],
				"metallicFactor":0,
				"roughnessFactor":0.5
			}
		},
		{
			"name":"Material_0.001",
			"normalTexture":{
				"index":0
			},
			"pbrMetallicRoughness":{
				"baseColorTexture":{
					"index":1
				},
				"metallicFactor":0
			}
		}
	],
	"meshes":[
		{
			"name":"Cube",
			"primitives":[
				{
					"attributes":{
						"POSITION":0,
						"NORMAL":1,
						"TEXCOORD_0":2
					},
					"indices":3,
					"material":0
				}
			]
		},
		{
			"name":"Torus.005",
			"primitives":[
				{
					"attributes":{
						"POSITION":4,
						"NORMAL":5,
						"TEXCOORD_0":6
					},
					"indices":7,
					"material":1
				}
			]
		},
		{
			"name":"Mesh_0.001",
			"primitives":[
				{
					"attributes":{
						"POSITION":8,
						"NORMAL":9,
						"TEXCOORD_0":10
					},
					"indices":11,
					"material":2
				}
			]
		}
	],
	"textures":[
		{
			"sampler":0,
			"source":0
		},
		{
			"sampler":0,
			"source":1
		}
	],
	"images":[
		{
			"mimeType":"image/jpeg",
			"name":"49bdf70cbd49b62508c8ef877602ac4d",
			"uri":"49bdf70cbd49b62508c8ef877602ac4d.jpg"
		},
		{
			"mimeType":"image/jpeg",
			"name":"81c06f5ed60a70b993a2eb6bd43ad37f",
			"uri":"81c06f5ed60a70b993a2eb6bd43ad37f.jpg"
		}
	],
	"accessors":[
		{
			"bufferView":0,
			"componentType":5126,
			"count":48,
			"max":[
				2.0030789375305176,
				1.6670476198196411,
				1.2726861238479614
			],
			"min":[
				-1.1969209909439087,
				-0.10000000894069672,
				-1.9273139238357544
			],
			"type":"VEC3"
		},
		{
			"bufferView":1,
			"componentType":5126,
			"count":48,
			"type":"VEC3"
		},
		{
			"bufferView":2,
			"componentType":5126,
			"count":48,
			"type":"VEC2"
		},
		{
			"bufferView":3,
			"componentType":5123,
			"count":72,
			"type":"SCALAR"
		},
		{
			"bufferView":4,
			"componentType":5126,
			"count":4171,
			"max":[
				1.6395989656448364,
				1.0643819570541382,
				-0.6470673084259033
			],
			"min":[
				0.9035991430282593,
				0.9746335744857788,
				-1.3830671310424805
			],
			"type":"VEC3"
		},
		{
			"bufferView":5,
			"componentType":5126,
			"count":4171,
			"type":"VEC3"
		},
		{
			"bufferView":6,
			"componentType":5126,
			"count":4171,
			"type":"VEC2"
		},
		{
			"bufferView":7,
			"componentType":5123,
			"count":24192,
			"type":"SCALAR"
		},
		{
			"bufferView":8,
			"componentType":5126,
			"count":23907,
			"max":[
				1.5523040294647217,
				0.8465500473976135,
				-0.5308561325073242
			],
			"min":[
				0.9406108856201172,
				-0.0013830065727233887,
				-1.5383176803588867
			],
			"type":"VEC3"
		},
		{
			"bufferView":9,
			"componentType":5126,
			"count":23907,
			"type":"VEC3"
		},
		{
			"bufferView":10,
			"componentType":5126,
			"count":23907,
			"type":"VEC2"
		},
		{
			"bufferView":11,
			"componentType":5123,
			"count":121176,
			"type":"SCALAR"
		}
	],
	"bufferViews":[
		{
			"buffer":0,
			"byteLength":576,
			"byteOffset":0,
			"target":34962
		},
		{
			"buffer":0,
			"byteLength":576,
			"byteOffset":576,
			"target":34962
		},
		{
			"buffer":0,
			"byteLength":384,
			"byteOffset":1152,
			"target":34962
		},
		{
			"buffer":0,
			"byteLength":144,
			"byteOffset":1536,
			"target":34963
		},
		{
			"buffer":0,
			"byteLength":50052,
			"byteOffset":1680,
			"target":34962
		},
		{
			"buffer":0,
			"byteLength":50052,
			"byteOffset":51732,
			"target":34962
		},
		{
			"buffer":0,
			"byteLength":33368,
			"byteOffset":101784,
			"target":34962
		},
		{
			"buffer":0,
			"byteLength":48384,
			"byteOffset":135152,
			"target":34963
		},
		{
			"buffer":0,
			"byteLength":286884,
			"byteOffset":183536,
			"target":34962
		},
		{
			"buffer":0,
			"byteLength":286884,
			"byteOffset":470420,
			"target":34962
		},
		{
			"buffer":0,
			"byteLength":191256,
			"byteOffset":757304,
			"target":34962
		},
		{
			"buffer":0,
			"byteLength":242352,
			"byteOffset":948560,
			"target":34963
		}
	],
	"samplers":[
		{
			"magFilter":9729,
			"minFilter":9987
		}
	],
	"buffers":[
		{
			"byteLength":1190912,
			"uri":"angel.bin"
		}
	]
}
