{
	"asset":{
		"generator":"Khronos glTF Blender I/O v4.3.47",
		"version":"2.0"
	},
	"extensionsUsed":[
		"KHR_materials_specular",
		"KHR_materials_ior"
	],
	"scene":0,
	"scenes":[
		{
			"name":"Scene",
			"nodes":[
				0,
				1,
				2,
				3,
				4
			]
		}
	],
	"nodes":[
		{
			"camera":0,
			"name":"Camera",
			"rotation":[
				-0.19657735526561737,
				0.3870926797389984,
				0.0848466083407402,
				0.8968377113342285
			],
			"translation":[
				3.543875217437744,
				2.632111072540283,
				3.4212679862976074
			]
		},
		{
			"mesh":0,
			"name":"Sphere"
		},
		{
			"mesh":1,
			"name":"Suzanne"
		},
		{
			"mesh":2,
			"name":"Sphere_02"
		},
		{
			"mesh":3,
			"name":"Ground"
		}
	],
	"cameras":[
		{
			"name":"Camera",
			"perspective":{
				"aspectRatio":1.7777777777777777,
				"yfov":0.39959652046304894,
				"zfar":100,
				"znear":0.10000000149011612
			},
			"type":"perspective"
		}
	],
	"materials":[
		{
			"doubleSided":true,
			"name":"Objects",
			"pbrMetallicRoughness":{
				"baseColorFactor":[
					0.800000011920929,
					0.800000011920929,
					0.800000011920929,
					1
				],
				"metallicFactor":0,
				"roughnessFactor":0.5
			}
		},
		{
			"doubleSided":true,
			"extensions":{
				"KHR_materials_specular":{
					"specularFactor":0.40869563817977905
				},
				"KHR_materials_ior":{
					"ior":1.4500000476837158
				}
			},
			"name":"Ground",
			"pbrMetallicRoughness":{
				"baseColorFactor":[
					0.12370902299880981,
					0.10278747975826263,
					0.053068485110998154,
					1
				],
				"metallicFactor":0,
				"roughnessFactor":0.8391304016113281
			}
		},
		{
			"doubleSided":true,
			"extensions":{
				"KHR_materials_specular":{
					"specularColorFactor":[
						1.5565216541290283,
						1.5565216541290283,
						1.5565216541290283
					]
				},
				"KHR_materials_ior":{
					"ior":1.4500000476837158
				}
			},
			"name":"Grass",
			"pbrMetallicRoughness":{
				"baseColorFactor":[
					0.07228714972734451,
					0.2529416084289551,
					0.08590371161699295,
					1
				],
				"metallicFactor":0,
				"roughnessFactor":0.6391304135322571
			}
		}
	],
	"meshes":[
		{
			"name":"Sphere",
			"primitives":[
				{
					"attributes":{
						"POSITION":0,
						"NORMAL":1,
						"TEXCOORD_0":2
					},
					"indices":3,
					"material":0
				}
			]
		},
		{
			"name":"Mesh",
			"primitives":[
				{
					"attributes":{
						"POSITION":4,
						"NORMAL":5,
						"TEXCOORD_0":6
					},
					"indices":7,
					"material":0
				}
			]
		},
		{
			"name":"Sphere.001",
			"primitives":[
				{
					"attributes":{
						"POSITION":8,
						"NORMAL":9,
						"TEXCOORD_0":10
					},
					"indices":3,
					"material":0
				}
			]
		},
		{
			"name":"Plane",
			"primitives":[
				{
					"attributes":{
						"POSITION":11,
						"NORMAL":12,
						"TEXCOORD_0":13
					},
					"indices":14,
					"material":1
				},
				{
					"attributes":{
						"POSITION":15,
						"NORMAL":16,
						"TEXCOORD_0":17
					},
					"indices":18,
					"material":2
				}
			]
		}
	],
	"accessors":[
		{
			"bufferView":0,
			"componentType":5126,
			"count":559,
			"max":[
				0.4702433943748474,
				0.6785822510719299,
				-0.4055613875389099
			],
			"min":[
				-0.17158903181552887,
				0.036749422550201416,
				-1.0473936796188354
			],
			"type":"VEC3"
		},
		{
			"bufferView":1,
			"componentType":5126,
			"count":559,
			"type":"VEC3"
		},
		{
			"bufferView":2,
			"componentType":5126,
			"count":559,
			"type":"VEC2"
		},
		{
			"bufferView":3,
			"componentType":5123,
			"count":2880,
			"type":"SCALAR"
		},
		{
			"bufferView":4,
			"componentType":5126,
			"count":2928,
			"max":[
				0.05066116526722908,
				0.7755441069602966,
				1.1182769536972046
			],
			"min":[
				-0.9432713389396667,
				0.016535505652427673,
				-0.055030182003974915
			],
			"type":"VEC3"
		},
		{
			"bufferView":5,
			"componentType":5126,
			"count":2928,
			"type":"VEC3"
		},
		{
			"bufferView":6,
			"componentType":5126,
			"count":2928,
			"type":"VEC2"
		},
		{
			"bufferView":7,
			"componentType":5123,
			"count":11808,
			"type":"SCALAR"
		},
		{
			"bufferView":8,
			"componentType":5126,
			"count":559,
			"max":[
				1.107168197631836,
				0.537564218044281,
				0.6897309422492981
			],
			"min":[
				0.6439207792282104,
				0.07431645691394806,
				0.2264835685491562
			],
			"type":"VEC3"
		},
		{
			"bufferView":9,
			"componentType":5126,
			"count":559,
			"type":"VEC3"
		},
		{
			"bufferView":10,
			"componentType":5126,
			"count":559,
			"type":"VEC2"
		},
		{
			"bufferView":11,
			"componentType":5126,
			"count":4096,
			"max":[
				2.1997597217559814,
				0.06578260660171509,
				2.2484843730926514
			],
			"min":[
				-2.2470450401306152,
				-0.06552781909704208,
				-2.1983206272125244
			],
			"type":"VEC3"
		},
		{
			"bufferView":12,
			"componentType":5126,
			"count":4096,
			"type":"VEC3"
		},
		{
			"bufferView":13,
			"componentType":5126,
			"count":4096,
			"type":"VEC2"
		},
		{
			"bufferView":14,
			"componentType":5123,
			"count":6144,
			"type":"SCALAR"
		},
		{
			"bufferView":15,
			"componentType":5126,
			"count":161568,
			"max":[
				2.353435754776001,
				0.6586862206459045,
				2.3847568035125732
			],
			"min":[
				-2.360407829284668,
				-0.06857910752296448,
				-2.427597761154175
			],
			"type":"VEC3"
		},
		{
			"bufferView":16,
			"componentType":5126,
			"count":161568,
			"type":"VEC3"
		},
		{
			"bufferView":17,
			"componentType":5126,
			"count":161568,
			"type":"VEC2"
		},
		{
			"bufferView":18,
			"componentType":5125,
			"count":727056,
			"type":"SCALAR"
		}
	],
	"bufferViews":[
		{
			"buffer":0,
			"byteLength":6708,
			"byteOffset":0,
			"target":34962
		},
		{
			"buffer":0,
			"byteLength":6708,
			"byteOffset":6708,
			"target":34962
		},
		{
			"buffer":0,
			"byteLength":4472,
			"byteOffset":13416,
			"target":34962
		},
		{
			"buffer":0,
			"byteLength":5760,
			"byteOffset":17888,
			"target":34963
		},
		{
			"buffer":0,
			"byteLength":35136,
			"byteOffset":23648,
			"target":34962
		},
		{
			"buffer":0,
			"byteLength":35136,
			"byteOffset":58784,
			"target":34962
		},
		{
			"buffer":0,
			"byteLength":23424,
			"byteOffset":93920,
			"target":34962
		},
		{
			"buffer":0,
			"byteLength":23616,
			"byteOffset":117344,
			"target":34963
		},
		{
			"buffer":0,
			"byteLength":6708,
			"byteOffset":140960,
			"target":34962
		},
		{
			"buffer":0,
			"byteLength":6708,
			"byteOffset":147668,
			"target":34962
		},
		{
			"buffer":0,
			"byteLength":4472,
			"byteOffset":154376,
			"target":34962
		},
		{
			"buffer":0,
			"byteLength":49152,
			"byteOffset":158848,
			"target":34962
		},
		{
			"buffer":0,
			"byteLength":49152,
			"byteOffset":208000,
			"target":34962
		},
		{
			"buffer":0,
			"byteLength":32768,
			"byteOffset":257152,
			"target":34962
		},
		{
			"buffer":0,
			"byteLength":12288,
			"byteOffset":289920,
			"target":34963
		},
		{
			"buffer":0,
			"byteLength":1938816,
			"byteOffset":302208,
			"target":34962
		},
		{
			"buffer":0,
			"byteLength":1938816,
			"byteOffset":2241024,
			"target":34962
		},
		{
			"buffer":0,
			"byteLength":1292544,
			"byteOffset":4179840,
			"target":34962
		},
		{
			"buffer":0,
			"byteLength":2908224,
			"byteOffset":5472384,
			"target":34963
		}
	],
	"buffers":[
		{
			"byteLength":8380608,
			"uri":"ball-in-grass.bin"
		}
	]
}
