{
	"asset":{
		"generator":"Khronos glTF Blender I/O v4.3.47",
		"version":"2.0"
	},
	"scene":0,
	"scenes":[
		{
			"name":"Scene",
			"nodes":[
				0,
				1,
				2,
				3,
				4
			]
		}
	],
	"nodes":[
		{
			"mesh":0,
			"name":"Room"
		},
		{
			"camera":0,
			"name":"Camera",
			"translation":[
				0,
				0.47947007417678833,
				4.3245158195495605
			]
		},
		{
			"mesh":1,
			"name":"Mirror"
		},
		{
			"mesh":2,
			"name":"Cube"
		},
		{
			"mesh":3,
			"name":"Icosphere"
		}
	],
	"cameras":[
		{
			"name":"Camera.001",
			"perspective":{
				"aspectRatio":1.7777777777777777,
				"yfov":0.39959652046304894,
				"zfar":1000,
				"znear":0.10000000149011612
			},
			"type":"perspective"
		}
	],
	"materials":[
		{
			"doubleSided":true,
			"name":"White",
			"pbrMetallicRoughness":{
				"baseColorFactor":[
					0.7849037647247314,
					0.7849037647247314,
					0.7849037647247314,
					1
				],
				"metallicFactor":0
			}
		},
		{
			"doubleSided":true,
			"name":"Mirror",
			"pbrMetallicRoughness":{
				"baseColorFactor":[
					0.7119865417480469,
					0.7119865417480469,
					0.7119865417480469,
					1
				],
				"roughnessFactor":0
			}
		},
		{
			"doubleSided":true,
			"name":"Blue",
			"pbrMetallicRoughness":{
				"baseColorFactor":[
					0.036888837814331055,
					0.03820417448878288,
					0.6239606738090515,
					1
				],
				"metallicFactor":0
			}
		},
		{
			"doubleSided":true,
			"name":"Red",
			"pbrMetallicRoughness":{
				"baseColorFactor":[
					0.747928261756897,
					0.056025926023721695,
					0.03606468811631203,
					1
				],
				"metallicFactor":0
			}
		}
	],
	"meshes":[
		{
			"name":"Cube",
			"primitives":[
				{
					"attributes":{
						"POSITION":0,
						"NORMAL":1,
						"TEXCOORD_0":2
					},
					"indices":3,
					"material":0
				}
			]
		},
		{
			"name":"Cube.001",
			"primitives":[
				{
					"attributes":{
						"POSITION":4,
						"NORMAL":5,
						"TEXCOORD_0":6
					},
					"indices":7,
					"material":1
				}
			]
		},
		{
			"name":"Cube.003",
			"primitives":[
				{
					"attributes":{
						"POSITION":8,
						"NORMAL":9,
						"TEXCOORD_0":10
					},
					"indices":11,
					"material":2
				}
			]
		},
		{
			"name":"Icosphere",
			"primitives":[
				{
					"attributes":{
						"POSITION":12,
						"NORMAL":13,
						"TEXCOORD_0":14
					},
					"indices":15,
					"material":3
				}
			]
		}
	],
	"accessors":[
		{
			"bufferView":0,
			"componentType":5126,
			"count":48,
			"max":[
				0.8779975175857544,
				0.770723819732666,
				2.2046804428100586
			],
			"min":[
				-0.8779975175857544,
				-0.09999999403953552,
				-1.100000023841858
			],
			"type":"VEC3"
		},
		{
			"bufferView":1,
			"componentType":5126,
			"count":48,
			"type":"VEC3"
		},
		{
			"bufferView":2,
			"componentType":5126,
			"count":48,
			"type":"VEC2"
		},
		{
			"bufferView":3,
			"componentType":5123,
			"count":84,
			"type":"SCALAR"
		},
		{
			"bufferView":4,
			"componentType":5126,
			"count":24,
			"max":[
				0.12092059850692749,
				1.0973515510559082,
				0.29443278908729553
			],
			"min":[
				-0.5631188750267029,
				2.5033950805664062e-06,
				-0.38960668444633484
			],
			"type":"VEC3"
		},
		{
			"bufferView":5,
			"componentType":5126,
			"count":24,
			"type":"VEC3"
		},
		{
			"bufferView":6,
			"componentType":5126,
			"count":24,
			"type":"VEC2"
		},
		{
			"bufferView":7,
			"componentType":5123,
			"count":36,
			"type":"SCALAR"
		},
		{
			"bufferView":8,
			"componentType":5126,
			"count":864,
			"max":[
				0.6688013076782227,
				0.4759019911289215,
				1.0452810525894165
			],
			"min":[
				0.06321199238300323,
				1.2367963790893555e-06,
				0.4396916627883911
			],
			"type":"VEC3"
		},
		{
			"bufferView":9,
			"componentType":5126,
			"count":864,
			"type":"VEC3"
		},
		{
			"bufferView":10,
			"componentType":5126,
			"count":864,
			"type":"VEC2"
		},
		{
			"bufferView":11,
			"componentType":5123,
			"count":1284,
			"type":"SCALAR"
		},
		{
			"bufferView":12,
			"componentType":5126,
			"count":245760,
			"max":[
				-0.13552606105804443,
				0.5,
				1.4763164520263672
			],
			"min":[
				-0.6355260610580444,
				2.9802322387695312e-08,
				0.9763164520263672
			],
			"type":"VEC3"
		},
		{
			"bufferView":13,
			"componentType":5126,
			"count":245760,
			"type":"VEC3"
		},
		{
			"bufferView":14,
			"componentType":5126,
			"count":245760,
			"type":"VEC2"
		},
		{
			"bufferView":15,
			"componentType":5125,
			"count":245760,
			"type":"SCALAR"
		}
	],
	"bufferViews":[
		{
			"buffer":0,
			"byteLength":576,
			"byteOffset":0,
			"target":34962
		},
		{
			"buffer":0,
			"byteLength":576,
			"byteOffset":576,
			"target":34962
		},
		{
			"buffer":0,
			"byteLength":384,
			"byteOffset":1152,
			"target":34962
		},
		{
			"buffer":0,
			"byteLength":168,
			"byteOffset":1536,
			"target":34963
		},
		{
			"buffer":0,
			"byteLength":288,
			"byteOffset":1704,
			"target":34962
		},
		{
			"buffer":0,
			"byteLength":288,
			"byteOffset":1992,
			"target":34962
		},
		{
			"buffer":0,
			"byteLength":192,
			"byteOffset":2280,
			"target":34962
		},
		{
			"buffer":0,
			"byteLength":72,
			"byteOffset":2472,
			"target":34963
		},
		{
			"buffer":0,
			"byteLength":10368,
			"byteOffset":2544,
			"target":34962
		},
		{
			"buffer":0,
			"byteLength":10368,
			"byteOffset":12912,
			"target":34962
		},
		{
			"buffer":0,
			"byteLength":6912,
			"byteOffset":23280,
			"target":34962
		},
		{
			"buffer":0,
			"byteLength":2568,
			"byteOffset":30192,
			"target":34963
		},
		{
			"buffer":0,
			"byteLength":2949120,
			"byteOffset":32760,
			"target":34962
		},
		{
			"buffer":0,
			"byteLength":2949120,
			"byteOffset":2981880,
			"target":34962
		},
		{
			"buffer":0,
			"byteLength":1966080,
			"byteOffset":5931000,
			"target":34962
		},
		{
			"buffer":0,
			"byteLength":983040,
			"byteOffset":7897080,
			"target":34963
		}
	],
	"buffers":[
		{
			"byteLength":8880120,
			"uri":"cornell.bin"
		}
	]
}
