{
	"asset":{
		"generator":"Khronos glTF Blender I/O v4.3.47",
		"version":"2.0"
	},
	"extensionsUsed":[
		"KHR_materials_transmission"
	],
	"scene":0,
	"scenes":[
		{
			"name":"Scene",
			"nodes":[
				0,
				1,
				2,
				3,
				4
			]
		}
	],
	"nodes":[
		{
			"mesh":0,
			"name":"Room"
		},
		{
			"mesh":1,
			"name":"Block"
		},
		{
			"camera":0,
			"name":"Camera",
			"translation":[
				0,
				1.4300400018692017,
				7.363365650177002
			]
		},
		{
			"mesh":2,
			"name":"Lamp"
		},
		{
			"mesh":3,
			"name":"Ball.001"
		}
	],
	"cameras":[
		{
			"name":"Camera",
			"perspective":{
				"aspectRatio":1.7777777777777777,
				"yfov":0.5856083749835487,
				"zfar":1000,
				"znear":0.10000000149011612
			},
			"type":"perspective"
		}
	],
	"materials":[
		{
			"doubleSided":true,
			"name":"White",
			"pbrMetallicRoughness":{
				"metallicFactor":0,
				"roughnessFactor":0.5
			}
		},
		{
			"doubleSided":true,
			"name":"Green",
			"pbrMetallicRoughness":{
				"baseColorFactor":[
					0.05540585517883301,
					0.4792287349700928,
					0.14686551690101624,
					1
				],
				"metallicFactor":0,
				"roughnessFactor":0.5
			}
		},
		{
			"doubleSided":true,
			"name":"Red",
			"pbrMetallicRoughness":{
				"baseColorFactor":[
					0.8005527257919312,
					0.07406466454267502,
					0.041353803128004074,
					1
				],
				"metallicFactor":0,
				"roughnessFactor":0.5
			}
		},
		{
			"doubleSided":true,
			"emissiveFactor":[
				1,
				1,
				1
			],
			"name":"Light",
			"pbrMetallicRoughness":{
				"baseColorFactor":[
					0.800000011920929,
					0.800000011920929,
					0.800000011920929,
					1
				],
				"metallicFactor":0,
				"roughnessFactor":0
			}
		},
		{
			"doubleSided":true,
			"extensions":{
				"KHR_materials_transmission":{
					"transmissionFactor":1
				}
			},
			"name":"Mirror.001",
			"pbrMetallicRoughness":{
				"metallicFactor":0,
				"roughnessFactor":0
			}
		}
	],
	"meshes":[
		{
			"name":"Cube",
			"primitives":[
				{
					"attributes":{
						"POSITION":0,
						"NORMAL":1,
						"TEXCOORD_0":2
					},
					"indices":3,
					"material":0
				},
				{
					"attributes":{
						"POSITION":4,
						"NORMAL":5,
						"TEXCOORD_0":6
					},
					"indices":7,
					"material":1
				},
				{
					"attributes":{
						"POSITION":8,
						"NORMAL":9,
						"TEXCOORD_0":10
					},
					"indices":11,
					"material":2
				}
			]
		},
		{
			"name":"Cube.001",
			"primitives":[
				{
					"attributes":{
						"POSITION":12,
						"NORMAL":13,
						"TEXCOORD_0":14
					},
					"indices":15,
					"material":0
				}
			]
		},
		{
			"name":"Cylinder",
			"primitives":[
				{
					"attributes":{
						"POSITION":16,
						"NORMAL":17,
						"TEXCOORD_0":18
					},
					"indices":19,
					"material":3
				}
			]
		},
		{
			"name":"Icosphere.001",
			"primitives":[
				{
					"attributes":{
						"POSITION":20,
						"NORMAL":21,
						"TEXCOORD_0":22
					},
					"indices":23,
					"material":4
				}
			]
		}
	],
	"accessors":[
		{
			"bufferView":0,
			"componentType":5126,
			"count":32,
			"max":[
				1.9852776527404785,
				2.9604430198669434,
				7.709742069244385
			],
			"min":[
				-1.9852776527404785,
				-0.05773502588272095,
				-2.057734966278076
			],
			"type":"VEC3"
		},
		{
			"bufferView":1,
			"componentType":5126,
			"count":32,
			"type":"VEC3"
		},
		{
			"bufferView":2,
			"componentType":5126,
			"count":32,
			"type":"VEC2"
		},
		{
			"bufferView":3,
			"componentType":5123,
			"count":48,
			"type":"SCALAR"
		},
		{
			"bufferView":4,
			"componentType":5126,
			"count":8,
			"max":[
				1.9852776527404785,
				2.9604430198669434,
				7.709742069244385
			],
			"min":[
				1.9275425672531128,
				-0.05773502588272095,
				-2.057734966278076
			],
			"type":"VEC3"
		},
		{
			"bufferView":5,
			"componentType":5126,
			"count":8,
			"type":"VEC3"
		},
		{
			"bufferView":6,
			"componentType":5126,
			"count":8,
			"type":"VEC2"
		},
		{
			"bufferView":7,
			"componentType":5123,
			"count":12,
			"type":"SCALAR"
		},
		{
			"bufferView":8,
			"componentType":5126,
			"count":8,
			"max":[
				-1.9275425672531128,
				2.9604430198669434,
				7.709742069244385
			],
			"min":[
				-1.9852776527404785,
				-0.05773502588272095,
				-2.057734966278076
			],
			"type":"VEC3"
		},
		{
			"bufferView":9,
			"componentType":5126,
			"count":8,
			"type":"VEC3"
		},
		{
			"bufferView":10,
			"componentType":5126,
			"count":8,
			"type":"VEC2"
		},
		{
			"bufferView":11,
			"componentType":5123,
			"count":12,
			"type":"SCALAR"
		},
		{
			"bufferView":12,
			"componentType":5126,
			"count":128,
			"max":[
				1.3546205759048462,
				1.9019544124603271,
				0.47579389810562134
			],
			"min":[
				0.11273814737796783,
				-1.040064478985414e-09,
				-0.7660885453224182
			],
			"type":"VEC3"
		},
		{
			"bufferView":13,
			"componentType":5126,
			"count":128,
			"type":"VEC3"
		},
		{
			"bufferView":14,
			"componentType":5126,
			"count":128,
			"type":"VEC2"
		},
		{
			"bufferView":15,
			"componentType":5123,
			"count":564,
			"type":"SCALAR"
		},
		{
			"bufferView":16,
			"componentType":5126,
			"count":194,
			"max":[
				1.4168407917022705,
				3.0881974697113037,
				1.4168407917022705
			],
			"min":[
				-1.4168407917022705,
				2.888197660446167,
				-1.4168407917022705
			],
			"type":"VEC3"
		},
		{
			"bufferView":17,
			"componentType":5126,
			"count":194,
			"type":"VEC3"
		},
		{
			"bufferView":18,
			"componentType":5126,
			"count":194,
			"type":"VEC2"
		},
		{
			"bufferView":19,
			"componentType":5123,
			"count":564,
			"type":"SCALAR"
		},
		{
			"bufferView":20,
			"componentType":5126,
			"count":2737,
			"max":[
				-0.4652120769023895,
				1.0414700508117676,
				1.7409576177597046
			],
			"min":[
				-1.5066821575164795,
				-9.313816384803886e-10,
				0.699487566947937
			],
			"type":"VEC3"
		},
		{
			"bufferView":21,
			"componentType":5126,
			"count":2737,
			"type":"VEC3"
		},
		{
			"bufferView":22,
			"componentType":5126,
			"count":2737,
			"type":"VEC2"
		},
		{
			"bufferView":23,
			"componentType":5123,
			"count":15360,
			"type":"SCALAR"
		}
	],
	"bufferViews":[
		{
			"buffer":0,
			"byteLength":384,
			"byteOffset":0,
			"target":34962
		},
		{
			"buffer":0,
			"byteLength":384,
			"byteOffset":384,
			"target":34962
		},
		{
			"buffer":0,
			"byteLength":256,
			"byteOffset":768,
			"target":34962
		},
		{
			"buffer":0,
			"byteLength":96,
			"byteOffset":1024,
			"target":34963
		},
		{
			"buffer":0,
			"byteLength":96,
			"byteOffset":1120,
			"target":34962
		},
		{
			"buffer":0,
			"byteLength":96,
			"byteOffset":1216,
			"target":34962
		},
		{
			"buffer":0,
			"byteLength":64,
			"byteOffset":1312,
			"target":34962
		},
		{
			"buffer":0,
			"byteLength":24,
			"byteOffset":1376,
			"target":34963
		},
		{
			"buffer":0,
			"byteLength":96,
			"byteOffset":1400,
			"target":34962
		},
		{
			"buffer":0,
			"byteLength":96,
			"byteOffset":1496,
			"target":34962
		},
		{
			"buffer":0,
			"byteLength":64,
			"byteOffset":1592,
			"target":34962
		},
		{
			"buffer":0,
			"byteLength":24,
			"byteOffset":1656,
			"target":34963
		},
		{
			"buffer":0,
			"byteLength":1536,
			"byteOffset":1680,
			"target":34962
		},
		{
			"buffer":0,
			"byteLength":1536,
			"byteOffset":3216,
			"target":34962
		},
		{
			"buffer":0,
			"byteLength":1024,
			"byteOffset":4752,
			"target":34962
		},
		{
			"buffer":0,
			"byteLength":1128,
			"byteOffset":5776,
			"target":34963
		},
		{
			"buffer":0,
			"byteLength":2328,
			"byteOffset":6904,
			"target":34962
		},
		{
			"buffer":0,
			"byteLength":2328,
			"byteOffset":9232,
			"target":34962
		},
		{
			"buffer":0,
			"byteLength":1552,
			"byteOffset":11560,
			"target":34962
		},
		{
			"buffer":0,
			"byteLength":1128,
			"byteOffset":13112,
			"target":34963
		},
		{
			"buffer":0,
			"byteLength":32844,
			"byteOffset":14240,
			"target":34962
		},
		{
			"buffer":0,
			"byteLength":32844,
			"byteOffset":47084,
			"target":34962
		},
		{
			"buffer":0,
			"byteLength":21896,
			"byteOffset":79928,
			"target":34962
		},
		{
			"buffer":0,
			"byteLength":30720,
			"byteOffset":101824,
			"target":34963
		}
	],
	"buffers":[
		{
			"byteLength":132544,
			"uri":"cornell_glass.bin"
		}
	]
}
