{
	"asset":{
		"generator":"Khronos glTF Blender I/O v4.3.47",
		"version":"2.0"
	},
	"scene":0,
	"scenes":[
		{
			"name":"Scene",
			"nodes":[
				0,
				1,
				2,
				3
			]
		}
	],
	"nodes":[
		{
			"mesh":0,
			"name":"Cube"
		},
		{
			"mesh":1,
			"name":"Cube.001"
		},
		{
			"camera":0,
			"name":"Camera",
			"translation":[
				0,
				1.8066229820251465,
				11.169831275939941
			]
		},
		{
			"mesh":2,
			"name":"Icosphere"
		}
	],
	"cameras":[
		{
			"name":"Camera",
			"perspective":{
				"aspectRatio":1.7777777777777777,
				"yfov":0.39959652046304894,
				"zfar":1000,
				"znear":0.10000000149011612
			},
			"type":"perspective"
		}
	],
	"materials":[
		{
			"doubleSided":true,
			"name":"White",
			"pbrMetallicRoughness":{
				"metallicFactor":0,
				"roughnessFactor":0.5
			}
		},
		{
			"doubleSided":true,
			"name":"Green",
			"pbrMetallicRoughness":{
				"baseColorFactor":[
					0.05540585517883301,
					0.4792287349700928,
					0.14686551690101624,
					1
				],
				"metallicFactor":0,
				"roughnessFactor":0.5
			}
		},
		{
			"doubleSided":true,
			"name":"Red",
			"pbrMetallicRoughness":{
				"baseColorFactor":[
					0.8005527257919312,
					0.07406466454267502,
					0.041353803128004074,
					1
				],
				"metallicFactor":0,
				"roughnessFactor":0.5
			}
		},
		{
			"doubleSided":true,
			"emissiveFactor":[
				1,
				1,
				1
			],
			"name":"Light",
			"pbrMetallicRoughness":{
				"baseColorFactor":[
					0.800000011920929,
					0.800000011920929,
					0.800000011920929,
					1
				],
				"metallicFactor":0,
				"roughnessFactor":0
			}
		},
		{
			"doubleSided":true,
			"name":"Mirror",
			"pbrMetallicRoughness":{
				"baseColorFactor":[
					0.800000011920929,
					0.800000011920929,
					0.800000011920929,
					1
				],
				"roughnessFactor":0
			}
		},
		{
			"doubleSided":true,
			"name":"Blue",
			"pbrMetallicRoughness":{
				"baseColorFactor":[
					0.03560072183609009,
					0.036889251321554184,
					0.6239606738090515,
					1
				],
				"metallicFactor":0,
				"roughnessFactor":0.5
			}
		}
	],
	"meshes":[
		{
			"name":"Cube",
			"primitives":[
				{
					"attributes":{
						"POSITION":0,
						"NORMAL":1,
						"TEXCOORD_0":2
					},
					"indices":3,
					"material":0
				},
				{
					"attributes":{
						"POSITION":4,
						"NORMAL":5,
						"TEXCOORD_0":6
					},
					"indices":7,
					"material":1
				},
				{
					"attributes":{
						"POSITION":8,
						"NORMAL":9,
						"TEXCOORD_0":10
					},
					"indices":11,
					"material":2
				},
				{
					"attributes":{
						"POSITION":12,
						"NORMAL":13,
						"TEXCOORD_0":14
					},
					"indices":15,
					"material":3
				}
			]
		},
		{
			"name":"Cube.001",
			"primitives":[
				{
					"attributes":{
						"POSITION":16,
						"NORMAL":17,
						"TEXCOORD_0":18
					},
					"indices":19,
					"material":4
				}
			]
		},
		{
			"name":"Icosphere",
			"primitives":[
				{
					"attributes":{
						"POSITION":20,
						"NORMAL":21,
						"TEXCOORD_0":22
					},
					"indices":23,
					"material":5
				}
			]
		}
	],
	"accessors":[
		{
			"bufferView":0,
			"componentType":5126,
			"count":140,
			"max":[
				1.9982532262802124,
				3.0027079582214355,
				12.03454303741455
			],
			"min":[
				-1.9982532262802124,
				-0.10000000149011612,
				-2.0707106590270996
			],
			"type":"VEC3"
		},
		{
			"bufferView":1,
			"componentType":5126,
			"count":140,
			"type":"VEC3"
		},
		{
			"bufferView":2,
			"componentType":5126,
			"count":140,
			"type":"VEC2"
		},
		{
			"bufferView":3,
			"componentType":5123,
			"count":276,
			"type":"SCALAR"
		},
		{
			"bufferView":4,
			"componentType":5126,
			"count":20,
			"max":[
				1.9982532262802124,
				2.973418712615967,
				12.021567344665527
			],
			"min":[
				1.9275425672531128,
				-0.0707106813788414,
				-2.057734966278076
			],
			"type":"VEC3"
		},
		{
			"bufferView":5,
			"componentType":5126,
			"count":20,
			"type":"VEC3"
		},
		{
			"bufferView":6,
			"componentType":5126,
			"count":20,
			"type":"VEC2"
		},
		{
			"bufferView":7,
			"componentType":5123,
			"count":36,
			"type":"SCALAR"
		},
		{
			"bufferView":8,
			"componentType":5126,
			"count":20,
			"max":[
				-1.9275425672531128,
				2.973418712615967,
				12.021567344665527
			],
			"min":[
				-1.9982532262802124,
				-0.0707106739282608,
				-2.057734966278076
			],
			"type":"VEC3"
		},
		{
			"bufferView":9,
			"componentType":5126,
			"count":20,
			"type":"VEC3"
		},
		{
			"bufferView":10,
			"componentType":5126,
			"count":20,
			"type":"VEC2"
		},
		{
			"bufferView":11,
			"componentType":5123,
			"count":36,
			"type":"SCALAR"
		},
		{
			"bufferView":12,
			"componentType":5126,
			"count":8,
			"max":[
				0.9963746666908264,
				3.0027079582214355,
				1.0036768913269043
			],
			"min":[
				-0.9884834289550781,
				2.902708053588867,
				-1.0013794898986816
			],
			"type":"VEC3"
		},
		{
			"bufferView":13,
			"componentType":5126,
			"count":8,
			"type":"VEC3"
		},
		{
			"bufferView":14,
			"componentType":5126,
			"count":8,
			"type":"VEC2"
		},
		{
			"bufferView":15,
			"componentType":5123,
			"count":12,
			"type":"SCALAR"
		},
		{
			"bufferView":16,
			"componentType":5126,
			"count":24,
			"max":[
				1.3595752716064453,
				1.7316311597824097,
				0.4807487428188324
			],
			"min":[
				0.10778331756591797,
				-1.040064478985414e-09,
				-0.7710433006286621
			],
			"type":"VEC3"
		},
		{
			"bufferView":17,
			"componentType":5126,
			"count":24,
			"type":"VEC3"
		},
		{
			"bufferView":18,
			"componentType":5126,
			"count":24,
			"type":"VEC2"
		},
		{
			"bufferView":19,
			"componentType":5123,
			"count":36,
			"type":"SCALAR"
		},
		{
			"bufferView":20,
			"componentType":5126,
			"count":2737,
			"max":[
				-0.584552526473999,
				1.041467547416687,
				1.7478536367416382
			],
			"min":[
				-1.6260199546813965,
				-5.684341886080802e-14,
				0.706386148929596
			],
			"type":"VEC3"
		},
		{
			"bufferView":21,
			"componentType":5126,
			"count":2737,
			"type":"VEC3"
		},
		{
			"bufferView":22,
			"componentType":5126,
			"count":2737,
			"type":"VEC2"
		},
		{
			"bufferView":23,
			"componentType":5123,
			"count":15360,
			"type":"SCALAR"
		}
	],
	"bufferViews":[
		{
			"buffer":0,
			"byteLength":1680,
			"byteOffset":0,
			"target":34962
		},
		{
			"buffer":0,
			"byteLength":1680,
			"byteOffset":1680,
			"target":34962
		},
		{
			"buffer":0,
			"byteLength":1120,
			"byteOffset":3360,
			"target":34962
		},
		{
			"buffer":0,
			"byteLength":552,
			"byteOffset":4480,
			"target":34963
		},
		{
			"buffer":0,
			"byteLength":240,
			"byteOffset":5032,
			"target":34962
		},
		{
			"buffer":0,
			"byteLength":240,
			"byteOffset":5272,
			"target":34962
		},
		{
			"buffer":0,
			"byteLength":160,
			"byteOffset":5512,
			"target":34962
		},
		{
			"buffer":0,
			"byteLength":72,
			"byteOffset":5672,
			"target":34963
		},
		{
			"buffer":0,
			"byteLength":240,
			"byteOffset":5744,
			"target":34962
		},
		{
			"buffer":0,
			"byteLength":240,
			"byteOffset":5984,
			"target":34962
		},
		{
			"buffer":0,
			"byteLength":160,
			"byteOffset":6224,
			"target":34962
		},
		{
			"buffer":0,
			"byteLength":72,
			"byteOffset":6384,
			"target":34963
		},
		{
			"buffer":0,
			"byteLength":96,
			"byteOffset":6456,
			"target":34962
		},
		{
			"buffer":0,
			"byteLength":96,
			"byteOffset":6552,
			"target":34962
		},
		{
			"buffer":0,
			"byteLength":64,
			"byteOffset":6648,
			"target":34962
		},
		{
			"buffer":0,
			"byteLength":24,
			"byteOffset":6712,
			"target":34963
		},
		{
			"buffer":0,
			"byteLength":288,
			"byteOffset":6736,
			"target":34962
		},
		{
			"buffer":0,
			"byteLength":288,
			"byteOffset":7024,
			"target":34962
		},
		{
			"buffer":0,
			"byteLength":192,
			"byteOffset":7312,
			"target":34962
		},
		{
			"buffer":0,
			"byteLength":72,
			"byteOffset":7504,
			"target":34963
		},
		{
			"buffer":0,
			"byteLength":32844,
			"byteOffset":7576,
			"target":34962
		},
		{
			"buffer":0,
			"byteLength":32844,
			"byteOffset":40420,
			"target":34962
		},
		{
			"buffer":0,
			"byteLength":21896,
			"byteOffset":73264,
			"target":34962
		},
		{
			"buffer":0,
			"byteLength":30720,
			"byteOffset":95160,
			"target":34963
		}
	],
	"buffers":[
		{
			"byteLength":125880,
			"uri":"cornell.bin"
		}
	]
}
