{
	"asset":{
		"generator":"Khronos glTF Blender I/O v4.3.47",
		"version":"2.0"
	},
	"scene":0,
	"scenes":[
		{
			"name":"Scene",
			"nodes":[
				0,
				1,
				2,
				3
			]
		}
	],
	"nodes":[
		{
			"mesh":0,
			"name":"Driftwood",
			"translation":[
				0,
				-0.002917072270065546,
				0
			]
		},
		{
			"mesh":1,
			"name":"Plane"
		},
		{
			"mesh":2,
			"name":"Cube"
		},
		{
			"camera":0,
			"name":"Camera",
			"rotation":[
				-0.1070793941617012,
				0.6989520788192749,
				0.1070794090628624,
				0.6989521384239197
			],
			"translation":[
				4.883706092834473,
				2.2298059463500977,
				0
			]
		}
	],
	"cameras":[
		{
			"name":"Camera.001",
			"perspective":{
				"aspectRatio":1.7777777777777777,
				"yfov":0.39959652046304894,
				"zfar":1000,
				"znear":0.10000000149011612
			},
			"type":"perspective"
		}
	],
	"materials":[
		{
			"name":"Material_0",
			"normalTexture":{
				"index":0
			},
			"pbrMetallicRoughness":{
				"baseColorTexture":{
					"index":1
				},
				"metallicFactor":0
			}
		},
		{
			"doubleSided":true,
			"name":"White",
			"pbrMetallicRoughness":{
				"metallicFactor":0,
				"roughnessFactor":0.5
			}
		}
	],
	"meshes":[
		{
			"name":"Mesh_0",
			"primitives":[
				{
					"attributes":{
						"POSITION":0,
						"NORMAL":1,
						"TEXCOORD_0":2
					},
					"indices":3,
					"material":0
				}
			]
		},
		{
			"name":"Plane",
			"primitives":[
				{
					"attributes":{
						"POSITION":4,
						"NORMAL":5,
						"TEXCOORD_0":6
					},
					"indices":7,
					"material":1
				}
			]
		},
		{
			"name":"Cube.001",
			"primitives":[
				{
					"attributes":{
						"POSITION":8,
						"NORMAL":9,
						"TEXCOORD_0":10
					},
					"indices":11,
					"material":1
				}
			]
		}
	],
	"textures":[
		{
			"sampler":0,
			"source":0
		},
		{
			"sampler":0,
			"source":1
		}
	],
	"images":[
		{
			"mimeType":"image/jpeg",
			"name":"fe68f2adea3f6cdb950c9fe4736c4719",
			"uri":"fe68f2adea3f6cdb950c9fe4736c4719.jpg"
		},
		{
			"mimeType":"image/jpeg",
			"name":"b092b08c8b50e6cf9cdb44b2d098a188",
			"uri":"b092b08c8b50e6cf9cdb44b2d098a188.jpg"
		}
	],
	"accessors":[
		{
			"bufferView":0,
			"componentType":5126,
			"count":107913,
			"max":[
				0.36150363087654114,
				1.332836389541626,
				1.1404775381088257
			],
			"min":[
				-0.37414494156837463,
				0.9526467323303223,
				-0.7702566385269165
			],
			"type":"VEC3"
		},
		{
			"bufferView":1,
			"componentType":5126,
			"count":107913,
			"type":"VEC3"
		},
		{
			"bufferView":2,
			"componentType":5126,
			"count":107913,
			"type":"VEC2"
		},
		{
			"bufferView":3,
			"componentType":5125,
			"count":107931,
			"type":"SCALAR"
		},
		{
			"bufferView":4,
			"componentType":5126,
			"count":48,
			"max":[
				1.4766438007354736,
				1.6082594394683838,
				2.4601376056671143
			],
			"min":[
				-3.2736313343048096,
				-0.17000003159046173,
				-2.4601376056671143
			],
			"type":"VEC3"
		},
		{
			"bufferView":5,
			"componentType":5126,
			"count":48,
			"type":"VEC3"
		},
		{
			"bufferView":6,
			"componentType":5126,
			"count":48,
			"type":"VEC2"
		},
		{
			"bufferView":7,
			"componentType":5123,
			"count":84,
			"type":"SCALAR"
		},
		{
			"bufferView":8,
			"componentType":5126,
			"count":1944,
			"max":[
				0.40116479992866516,
				0.9818791151046753,
				0.40116479992866516
			],
			"min":[
				-0.40116479992866516,
				0,
				-0.40116479992866516
			],
			"type":"VEC3"
		},
		{
			"bufferView":9,
			"componentType":5126,
			"count":1944,
			"type":"VEC3"
		},
		{
			"bufferView":10,
			"componentType":5126,
			"count":1944,
			"type":"VEC2"
		},
		{
			"bufferView":11,
			"componentType":5123,
			"count":2916,
			"type":"SCALAR"
		}
	],
	"bufferViews":[
		{
			"buffer":0,
			"byteLength":1294956,
			"byteOffset":0,
			"target":34962
		},
		{
			"buffer":0,
			"byteLength":1294956,
			"byteOffset":1294956,
			"target":34962
		},
		{
			"buffer":0,
			"byteLength":863304,
			"byteOffset":2589912,
			"target":34962
		},
		{
			"buffer":0,
			"byteLength":431724,
			"byteOffset":3453216,
			"target":34963
		},
		{
			"buffer":0,
			"byteLength":576,
			"byteOffset":3884940,
			"target":34962
		},
		{
			"buffer":0,
			"byteLength":576,
			"byteOffset":3885516,
			"target":34962
		},
		{
			"buffer":0,
			"byteLength":384,
			"byteOffset":3886092,
			"target":34962
		},
		{
			"buffer":0,
			"byteLength":168,
			"byteOffset":3886476,
			"target":34963
		},
		{
			"buffer":0,
			"byteLength":23328,
			"byteOffset":3886644,
			"target":34962
		},
		{
			"buffer":0,
			"byteLength":23328,
			"byteOffset":3909972,
			"target":34962
		},
		{
			"buffer":0,
			"byteLength":15552,
			"byteOffset":3933300,
			"target":34962
		},
		{
			"buffer":0,
			"byteLength":5832,
			"byteOffset":3948852,
			"target":34963
		}
	],
	"samplers":[
		{
			"magFilter":9729,
			"minFilter":9987
		}
	],
	"buffers":[
		{
			"byteLength":3954684,
			"uri":"driftwood.bin"
		}
	]
}
