{
	"asset":{
		"generator":"Khronos glTF Blender I/O v4.3.47",
		"version":"2.0"
	},
	"extensionsUsed":[
		"KHR_lights_punctual"
	],
	"extensionsRequired":[
		"KHR_lights_punctual"
	],
	"extensions":{
		"KHR_lights_punctual":{
			"lights":[
				{
					"color":[
						1,
						1,
						1
					],
					"intensity":10870.28261317645,
					"type":"point",
					"name":"Point"
				}
			]
		}
	},
	"scene":0,
	"scenes":[
		{
			"name":"Scene",
			"nodes":[
				0,
				1,
				2,
				3,
				4
			]
		}
	],
	"nodes":[
		{
			"mesh":0,
			"name":"Driftwood"
		},
		{
			"mesh":1,
			"name":"Plane"
		},
		{
			"mesh":2,
			"name":"Cube"
		},
		{
			"camera":0,
			"name":"Camera",
			"rotation":[
				-0.09602779895067215,
				0.7005559206008911,
				0.09602781385183334,
				0.7005560398101807
			],
			"translation":[
				4.173695087432861,
				1.8058271408081055,
				0
			]
		},
		{
			"extensions":{
				"KHR_lights_punctual":{
					"light":0
				}
			},
			"name":"Point",
			"rotation":[
				-0.7071068286895752,
				0,
				0,
				0.7071068286895752
			],
			"translation":[
				0.9109300971031189,
				2.0486717224121094,
				-1.364527702331543
			]
		}
	],
	"cameras":[
		{
			"name":"Camera.001",
			"perspective":{
				"aspectRatio":1.7777777777777777,
				"yfov":0.39959652046304894,
				"zfar":1000,
				"znear":0.10000000149011612
			},
			"type":"perspective"
		}
	],
	"materials":[
		{
			"name":"Material_0",
			"normalTexture":{
				"index":0
			},
			"pbrMetallicRoughness":{
				"baseColorTexture":{
					"index":1
				},
				"metallicFactor":0
			}
		},
		{
			"doubleSided":true,
			"name":"White",
			"pbrMetallicRoughness":{
				"baseColorFactor":[
					0.6938673257827759,
					0.6938724517822266,
					0.6938721537590027,
					1
				],
				"metallicFactor":0,
				"roughnessFactor":0.5
			}
		}
	],
	"meshes":[
		{
			"name":"Mesh_0",
			"primitives":[
				{
					"attributes":{
						"POSITION":0,
						"NORMAL":1,
						"TEXCOORD_0":2
					},
					"indices":3,
					"material":0
				}
			]
		},
		{
			"name":"Plane",
			"primitives":[
				{
					"attributes":{
						"POSITION":4,
						"NORMAL":5,
						"TEXCOORD_0":6
					},
					"indices":7,
					"material":1
				}
			]
		},
		{
			"name":"Cube.001",
			"primitives":[
				{
					"attributes":{
						"POSITION":8,
						"NORMAL":9,
						"TEXCOORD_0":10
					},
					"indices":11,
					"material":1
				}
			]
		}
	],
	"textures":[
		{
			"sampler":0,
			"source":0
		},
		{
			"sampler":0,
			"source":1
		}
	],
	"images":[
		{
			"mimeType":"image/jpeg",
			"name":"fe68f2adea3f6cdb950c9fe4736c4719",
			"uri":"fe68f2adea3f6cdb950c9fe4736c4719.jpg"
		},
		{
			"mimeType":"image/jpeg",
			"name":"b092b08c8b50e6cf9cdb44b2d098a188",
			"uri":"b092b08c8b50e6cf9cdb44b2d098a188.jpg"
		}
	],
	"accessors":[
		{
			"bufferView":0,
			"componentType":5126,
			"count":107915,
			"max":[
				0.36150363087654114,
				1.271558403968811,
				1.1404775381088257
			],
			"min":[
				-0.37414494156837463,
				0.8913687467575073,
				-0.7702566385269165
			],
			"type":"VEC3"
		},
		{
			"bufferView":1,
			"componentType":5126,
			"count":107915,
			"type":"VEC3"
		},
		{
			"bufferView":2,
			"componentType":5126,
			"count":107915,
			"type":"VEC2"
		},
		{
			"bufferView":3,
			"componentType":5125,
			"count":107931,
			"type":"SCALAR"
		},
		{
			"bufferView":4,
			"componentType":5126,
			"count":24,
			"max":[
				2.290137529373169,
				0,
				2.290137529373169
			],
			"min":[
				-2.290137529373169,
				-0.23923099040985107,
				-2.290137529373169
			],
			"type":"VEC3"
		},
		{
			"bufferView":5,
			"componentType":5126,
			"count":24,
			"type":"VEC3"
		},
		{
			"bufferView":6,
			"componentType":5126,
			"count":24,
			"type":"VEC2"
		},
		{
			"bufferView":7,
			"componentType":5123,
			"count":36,
			"type":"SCALAR"
		},
		{
			"bufferView":8,
			"componentType":5126,
			"count":384,
			"max":[
				0.40116479992866516,
				0.9206011891365051,
				0.40116479992866516
			],
			"min":[
				-0.40116479992866516,
				0,
				-0.40116479992866516
			],
			"type":"VEC3"
		},
		{
			"bufferView":9,
			"componentType":5126,
			"count":384,
			"type":"VEC3"
		},
		{
			"bufferView":10,
			"componentType":5126,
			"count":384,
			"type":"VEC2"
		},
		{
			"bufferView":11,
			"componentType":5123,
			"count":564,
			"type":"SCALAR"
		}
	],
	"bufferViews":[
		{
			"buffer":0,
			"byteLength":1294980,
			"byteOffset":0,
			"target":34962
		},
		{
			"buffer":0,
			"byteLength":1294980,
			"byteOffset":1294980,
			"target":34962
		},
		{
			"buffer":0,
			"byteLength":863320,
			"byteOffset":2589960,
			"target":34962
		},
		{
			"buffer":0,
			"byteLength":431724,
			"byteOffset":3453280,
			"target":34963
		},
		{
			"buffer":0,
			"byteLength":288,
			"byteOffset":3885004,
			"target":34962
		},
		{
			"buffer":0,
			"byteLength":288,
			"byteOffset":3885292,
			"target":34962
		},
		{
			"buffer":0,
			"byteLength":192,
			"byteOffset":3885580,
			"target":34962
		},
		{
			"buffer":0,
			"byteLength":72,
			"byteOffset":3885772,
			"target":34963
		},
		{
			"buffer":0,
			"byteLength":4608,
			"byteOffset":3885844,
			"target":34962
		},
		{
			"buffer":0,
			"byteLength":4608,
			"byteOffset":3890452,
			"target":34962
		},
		{
			"buffer":0,
			"byteLength":3072,
			"byteOffset":3895060,
			"target":34962
		},
		{
			"buffer":0,
			"byteLength":1128,
			"byteOffset":3898132,
			"target":34963
		}
	],
	"samplers":[
		{
			"magFilter":9729,
			"minFilter":9987
		}
	],
	"buffers":[
		{
			"byteLength":3899260,
			"uri":"driftwood.bin"
		}
	]
}
