{
	"asset":{
		"generator":"Khronos glTF Blender I/O v4.3.47",
		"version":"2.0"
	},
	"scene":0,
	"scenes":[
		{
			"name":"Scene",
			"nodes":[
				0,
				1,
				2,
				3
			]
		}
	],
	"nodes":[
		{
			"mesh":0,
			"name":"Driftwood",
			"translation":[
				0,
				-0.002917072270065546,
				0
			]
		},
		{
			"mesh":1,
			"name":"Plane"
		},
		{
			"mesh":2,
			"name":"Cube"
		},
		{
			"camera":0,
			"name":"Camera",
			"rotation":[
				-0.0967923030257225,
				0.7004507184028625,
				0.0967923179268837,
				0.7004508376121521
			],
			"translation":[
				5.860189437866211,
				2.4289157390594482,
				0
			]
		}
	],
	"cameras":[
		{
			"name":"Camera.001",
			"perspective":{
				"aspectRatio":1.7777777777777777,
				"yfov":0.39959652046304894,
				"zfar":1000,
				"znear":0.10000000149011612
			},
			"type":"perspective"
		}
	],
	"materials":[
		{
			"name":"Material_0",
			"normalTexture":{
				"index":0
			},
			"pbrMetallicRoughness":{
				"baseColorTexture":{
					"index":1
				},
				"metallicFactor":0
			}
		},
		{
			"doubleSided":true,
			"name":"White",
			"pbrMetallicRoughness":{
				"metallicFactor":0,
				"roughnessFactor":0.5
			}
		},
		{
			"doubleSided":true,
			"emissiveFactor":[
				1,
				1,
				1
			],
			"name":"Light",
			"pbrMetallicRoughness":{
				"baseColorFactor":[
					0.800000011920929,
					0.800000011920929,
					0.800000011920929,
					1
				],
				"metallicFactor":0,
				"roughnessFactor":0
			}
		}
	],
	"meshes":[
		{
			"name":"Mesh_0",
			"primitives":[
				{
					"attributes":{
						"POSITION":0,
						"NORMAL":1,
						"TEXCOORD_0":2
					},
					"indices":3,
					"material":0
				}
			]
		},
		{
			"name":"Plane",
			"primitives":[
				{
					"attributes":{
						"POSITION":4,
						"NORMAL":5,
						"TEXCOORD_0":6
					},
					"indices":7,
					"material":1
				},
				{
					"attributes":{
						"POSITION":8,
						"NORMAL":9,
						"TEXCOORD_0":10
					},
					"indices":11,
					"material":2
				}
			]
		},
		{
			"name":"Cube.001",
			"primitives":[
				{
					"attributes":{
						"POSITION":12,
						"NORMAL":13,
						"TEXCOORD_0":14
					},
					"indices":15,
					"material":1
				}
			]
		}
	],
	"textures":[
		{
			"sampler":0,
			"source":0
		},
		{
			"sampler":0,
			"source":1
		}
	],
	"images":[
		{
			"mimeType":"image/jpeg",
			"name":"fe68f2adea3f6cdb950c9fe4736c4719",
			"uri":"fe68f2adea3f6cdb950c9fe4736c4719.jpg"
		},
		{
			"mimeType":"image/jpeg",
			"name":"b092b08c8b50e6cf9cdb44b2d098a188",
			"uri":"b092b08c8b50e6cf9cdb44b2d098a188.jpg"
		}
	],
	"accessors":[
		{
			"bufferView":0,
			"componentType":5126,
			"count":107913,
			"max":[
				0.36150363087654114,
				1.332836389541626,
				1.1404775381088257
			],
			"min":[
				-0.37414494156837463,
				0.9526467323303223,
				-0.7702566385269165
			],
			"type":"VEC3"
		},
		{
			"bufferView":1,
			"componentType":5126,
			"count":107913,
			"type":"VEC3"
		},
		{
			"bufferView":2,
			"componentType":5126,
			"count":107913,
			"type":"VEC2"
		},
		{
			"bufferView":3,
			"componentType":5125,
			"count":107931,
			"type":"SCALAR"
		},
		{
			"bufferView":4,
			"componentType":5126,
			"count":62,
			"max":[
				6.243955612182617,
				2.6645140647888184,
				2.4602890014648438
			],
			"min":[
				-3.273756742477417,
				-0.17000003159046173,
				-2.460268974304199
			],
			"type":"VEC3"
		},
		{
			"bufferView":5,
			"componentType":5126,
			"count":62,
			"type":"VEC3"
		},
		{
			"bufferView":6,
			"componentType":5126,
			"count":62,
			"type":"VEC2"
		},
		{
			"bufferView":7,
			"componentType":5123,
			"count":108,
			"type":"SCALAR"
		},
		{
			"bufferView":8,
			"componentType":5126,
			"count":8,
			"max":[
				1.1985918283462524,
				2.6644287109375,
				2.4602890014648438
			],
			"min":[
				-3.273756742477417,
				2.472014904022217,
				-2.4601943492889404
			],
			"type":"VEC3"
		},
		{
			"bufferView":9,
			"componentType":5126,
			"count":8,
			"type":"VEC3"
		},
		{
			"bufferView":10,
			"componentType":5126,
			"count":8,
			"type":"VEC2"
		},
		{
			"bufferView":11,
			"componentType":5123,
			"count":12,
			"type":"SCALAR"
		},
		{
			"bufferView":12,
			"componentType":5126,
			"count":1944,
			"max":[
				0.40116479992866516,
				0.9818791151046753,
				0.40116479992866516
			],
			"min":[
				-0.40116479992866516,
				0,
				-0.40116479992866516
			],
			"type":"VEC3"
		},
		{
			"bufferView":13,
			"componentType":5126,
			"count":1944,
			"type":"VEC3"
		},
		{
			"bufferView":14,
			"componentType":5126,
			"count":1944,
			"type":"VEC2"
		},
		{
			"bufferView":15,
			"componentType":5123,
			"count":2916,
			"type":"SCALAR"
		}
	],
	"bufferViews":[
		{
			"buffer":0,
			"byteLength":1294956,
			"byteOffset":0,
			"target":34962
		},
		{
			"buffer":0,
			"byteLength":1294956,
			"byteOffset":1294956,
			"target":34962
		},
		{
			"buffer":0,
			"byteLength":863304,
			"byteOffset":2589912,
			"target":34962
		},
		{
			"buffer":0,
			"byteLength":431724,
			"byteOffset":3453216,
			"target":34963
		},
		{
			"buffer":0,
			"byteLength":744,
			"byteOffset":3884940,
			"target":34962
		},
		{
			"buffer":0,
			"byteLength":744,
			"byteOffset":3885684,
			"target":34962
		},
		{
			"buffer":0,
			"byteLength":496,
			"byteOffset":3886428,
			"target":34962
		},
		{
			"buffer":0,
			"byteLength":216,
			"byteOffset":3886924,
			"target":34963
		},
		{
			"buffer":0,
			"byteLength":96,
			"byteOffset":3887140,
			"target":34962
		},
		{
			"buffer":0,
			"byteLength":96,
			"byteOffset":3887236,
			"target":34962
		},
		{
			"buffer":0,
			"byteLength":64,
			"byteOffset":3887332,
			"target":34962
		},
		{
			"buffer":0,
			"byteLength":24,
			"byteOffset":3887396,
			"target":34963
		},
		{
			"buffer":0,
			"byteLength":23328,
			"byteOffset":3887420,
			"target":34962
		},
		{
			"buffer":0,
			"byteLength":23328,
			"byteOffset":3910748,
			"target":34962
		},
		{
			"buffer":0,
			"byteLength":15552,
			"byteOffset":3934076,
			"target":34962
		},
		{
			"buffer":0,
			"byteLength":5832,
			"byteOffset":3949628,
			"target":34963
		}
	],
	"samplers":[
		{
			"magFilter":9729,
			"minFilter":9987
		}
	],
	"buffers":[
		{
			"byteLength":3955460,
			"uri":"driftwood.bin"
		}
	]
}
