{
	"asset":{
		"generator":"Khronos glTF Blender I/O v4.3.47",
		"version":"2.0"
	},
	"extensionsUsed":[
		"KHR_lights_punctual",
		"KHR_materials_specular",
		"KHR_materials_ior"
	],
	"extensionsRequired":[
		"KHR_lights_punctual"
	],
	"extensions":{
		"KHR_lights_punctual":{
			"lights":[
				{
					"color":[
						1,
						1,
						1
					],
					"intensity":54351.41306588226,
					"type":"point",
					"name":"Light"
				},
				{
					"color":[
						1,
						1,
						1
					],
					"intensity":27175.70653294113,
					"type":"point",
					"name":"Light.001"
				}
			]
		}
	},
	"scene":0,
	"scenes":[
		{
			"name":"Scene",
			"nodes":[
				0,
				1,
				2,
				3,
				4
			]
		}
	],
	"nodes":[
		{
			"extensions":{
				"KHR_lights_punctual":{
					"light":0
				}
			},
			"name":"Light",
			"rotation":[
				-0.28416627645492554,
				0.7269423007965088,
				0.34203392267227173,
				0.5232754945755005
			],
			"translation":[
				4.076245307922363,
				5.903861999511719,
				-1.0054539442062378
			]
		},
		{
			"camera":0,
			"name":"Camera",
			"rotation":[
				-0.320804238319397,
				0.3713044226169586,
				0.13846534490585327,
				0.8602586984634399
			],
			"translation":[
				1.3072106838226318,
				1.7792869806289673,
				1.3189010620117188
			]
		},
		{
			"extensions":{
				"KHR_lights_punctual":{
					"light":1
				}
			},
			"name":"Light.001",
			"rotation":[
				-0.28416627645492554,
				0.7269423007965088,
				0.34203392267227173,
				0.5232754945755005
			],
			"translation":[
				-1.9652330875396729,
				4.194926738739014,
				2.113431930541992
			]
		},
		{
			"mesh":0,
			"name":"Suzanne"
		},
		{
			"mesh":1,
			"name":"Ground"
		}
	],
	"cameras":[
		{
			"name":"Camera",
			"perspective":{
				"aspectRatio":1.7777777777777777,
				"yfov":0.39959652046304894,
				"zfar":100,
				"znear":0.10000000149011612
			},
			"type":"perspective"
		}
	],
	"materials":[
		{
			"doubleSided":true,
			"name":"Objects",
			"pbrMetallicRoughness":{
				"baseColorFactor":[
					0.800000011920929,
					0.800000011920929,
					0.800000011920929,
					1
				],
				"metallicFactor":0,
				"roughnessFactor":0.5
			}
		},
		{
			"doubleSided":true,
			"extensions":{
				"KHR_materials_specular":{
					"specularFactor":0.40869563817977905
				},
				"KHR_materials_ior":{
					"ior":1.4500000476837158
				}
			},
			"name":"Ground",
			"pbrMetallicRoughness":{
				"baseColorFactor":[
					0.12370902299880981,
					0.10278747975826263,
					0.053068485110998154,
					1
				],
				"metallicFactor":0,
				"roughnessFactor":0.8391304016113281
			}
		},
		{
			"doubleSided":true,
			"extensions":{
				"KHR_materials_specular":{
					"specularColorFactor":[
						1.5565216541290283,
						1.5565216541290283,
						1.5565216541290283
					]
				},
				"KHR_materials_ior":{
					"ior":1.4500000476837158
				}
			},
			"name":"Grass",
			"pbrMetallicRoughness":{
				"baseColorFactor":[
					0.07228714972734451,
					0.2529416084289551,
					0.08590371161699295,
					1
				],
				"metallicFactor":0,
				"roughnessFactor":0.6391304135322571
			}
		}
	],
	"meshes":[
		{
			"name":"Suzanne",
			"primitives":[
				{
					"attributes":{
						"POSITION":0,
						"NORMAL":1,
						"TEXCOORD_0":2
					},
					"indices":3,
					"material":0
				}
			]
		},
		{
			"name":"Plane",
			"primitives":[
				{
					"attributes":{
						"POSITION":4,
						"NORMAL":5,
						"TEXCOORD_0":6
					},
					"indices":7,
					"material":1
				},
				{
					"attributes":{
						"POSITION":8,
						"NORMAL":9,
						"TEXCOORD_0":10
					},
					"indices":11,
					"material":2
				}
			]
		}
	],
	"accessors":[
		{
			"bufferView":0,
			"componentType":5126,
			"count":7872,
			"max":[
				0.4050716757774353,
				0.6184929013252258,
				0.4287014603614807
			],
			"min":[
				-0.3884837031364441,
				0.012500733137130737,
				-0.5080666542053223
			],
			"type":"VEC3"
		},
		{
			"bufferView":1,
			"componentType":5126,
			"count":7872,
			"type":"VEC3"
		},
		{
			"bufferView":2,
			"componentType":5126,
			"count":7872,
			"type":"VEC2"
		},
		{
			"bufferView":3,
			"componentType":5123,
			"count":11808,
			"type":"SCALAR"
		},
		{
			"bufferView":4,
			"componentType":5126,
			"count":1040,
			"max":[
				1.2898759841918945,
				0.06699913740158081,
				1.3323554992675781
			],
			"min":[
				-1.3311007022857666,
				-0.0667843297123909,
				-1.288621187210083
			],
			"type":"VEC3"
		},
		{
			"bufferView":5,
			"componentType":5126,
			"count":1040,
			"type":"VEC3"
		},
		{
			"bufferView":6,
			"componentType":5126,
			"count":1040,
			"type":"VEC2"
		},
		{
			"bufferView":7,
			"componentType":5123,
			"count":5760,
			"type":"SCALAR"
		},
		{
			"bufferView":8,
			"componentType":5126,
			"count":55120,
			"max":[
				1.413508653640747,
				0.6660676598548889,
				1.3569982051849365
			],
			"min":[
				-1.4392691850662231,
				-0.16538788378238678,
				-1.3732781410217285
			],
			"type":"VEC3"
		},
		{
			"bufferView":9,
			"componentType":5126,
			"count":55120,
			"type":"VEC3"
		},
		{
			"bufferView":10,
			"componentType":5126,
			"count":55120,
			"type":"VEC2"
		},
		{
			"bufferView":11,
			"componentType":5123,
			"count":248040,
			"type":"SCALAR"
		}
	],
	"bufferViews":[
		{
			"buffer":0,
			"byteLength":94464,
			"byteOffset":0,
			"target":34962
		},
		{
			"buffer":0,
			"byteLength":94464,
			"byteOffset":94464,
			"target":34962
		},
		{
			"buffer":0,
			"byteLength":62976,
			"byteOffset":188928,
			"target":34962
		},
		{
			"buffer":0,
			"byteLength":23616,
			"byteOffset":251904,
			"target":34963
		},
		{
			"buffer":0,
			"byteLength":12480,
			"byteOffset":275520,
			"target":34962
		},
		{
			"buffer":0,
			"byteLength":12480,
			"byteOffset":288000,
			"target":34962
		},
		{
			"buffer":0,
			"byteLength":8320,
			"byteOffset":300480,
			"target":34962
		},
		{
			"buffer":0,
			"byteLength":11520,
			"byteOffset":308800,
			"target":34963
		},
		{
			"buffer":0,
			"byteLength":661440,
			"byteOffset":320320,
			"target":34962
		},
		{
			"buffer":0,
			"byteLength":661440,
			"byteOffset":981760,
			"target":34962
		},
		{
			"buffer":0,
			"byteLength":440960,
			"byteOffset":1643200,
			"target":34962
		},
		{
			"buffer":0,
			"byteLength":496080,
			"byteOffset":2084160,
			"target":34963
		}
	],
	"buffers":[
		{
			"byteLength":2580240,
			"uri":"grass.bin"
		}
	]
}
