{
	"asset":{
		"generator":"Khronos glTF Blender I/O v4.3.47",
		"version":"2.0"
	},
	"scene":0,
	"scenes":[
		{
			"name":"Scene",
			"nodes":[
				0,
				1,
				2
			]
		}
	],
	"nodes":[
		{
			"mesh":0,
			"name":"Icosphere"
		},
		{
			"mesh":1,
			"name":"Icosphere.001"
		},
		{
			"mesh":2,
			"name":"Icosphere.002"
		}
	],
	"meshes":[
		{
			"name":"Icosphere.007",
			"primitives":[
				{
					"attributes":{
						"POSITION":0,
						"NORMAL":1
					},
					"indices":2
				}
			]
		},
		{
			"name":"Icosphere.008",
			"primitives":[
				{
					"attributes":{
						"POSITION":3,
						"NORMAL":4
					},
					"indices":5
				}
			]
		},
		{
			"name":"Icosphere.009",
			"primitives":[
				{
					"attributes":{
						"POSITION":6,
						"NORMAL":7
					},
					"indices":8
				}
			]
		}
	],
	"accessors":[
		{
			"bufferView":0,
			"componentType":5126,
			"count":240,
			"max":[
				0.19021156430244446,
				0.19999998807907104,
				-0.800000011920929
			],
			"min":[
				-0.19021156430244446,
				-0.19999998807907104,
				-1.1999999284744263
			],
			"type":"VEC3"
		},
		{
			"bufferView":1,
			"componentType":5126,
			"count":240,
			"type":"VEC3"
		},
		{
			"bufferView":2,
			"componentType":5123,
			"count":240,
			"type":"SCALAR"
		},
		{
			"bufferView":3,
			"componentType":5126,
			"count":60,
			"max":[
				-0.3961150050163269,
				0.19999998807907104,
				-0.8298720121383667
			],
			"min":[
				-0.7538849711418152,
				-0.19999998807907104,
				-1.1701279878616333
			],
			"type":"VEC3"
		},
		{
			"bufferView":4,
			"componentType":5126,
			"count":60,
			"type":"VEC3"
		},
		{
			"bufferView":5,
			"componentType":5123,
			"count":60,
			"type":"SCALAR"
		},
		{
			"bufferView":6,
			"componentType":5126,
			"count":960,
			"max":[
				0.7749999761581421,
				0.19999998807907104,
				-0.800000011920929
			],
			"min":[
				0.375,
				-0.19999998807907104,
				-1.1999999284744263
			],
			"type":"VEC3"
		},
		{
			"bufferView":7,
			"componentType":5126,
			"count":960,
			"type":"VEC3"
		},
		{
			"bufferView":8,
			"componentType":5123,
			"count":960,
			"type":"SCALAR"
		}
	],
	"bufferViews":[
		{
			"buffer":0,
			"byteLength":2880,
			"byteOffset":0,
			"target":34962
		},
		{
			"buffer":0,
			"byteLength":2880,
			"byteOffset":2880,
			"target":34962
		},
		{
			"buffer":0,
			"byteLength":480,
			"byteOffset":5760,
			"target":34963
		},
		{
			"buffer":0,
			"byteLength":720,
			"byteOffset":6240,
			"target":34962
		},
		{
			"buffer":0,
			"byteLength":720,
			"byteOffset":6960,
			"target":34962
		},
		{
			"buffer":0,
			"byteLength":120,
			"byteOffset":7680,
			"target":34963
		},
		{
			"buffer":0,
			"byteLength":11520,
			"byteOffset":7800,
			"target":34962
		},
		{
			"buffer":0,
			"byteLength":11520,
			"byteOffset":19320,
			"target":34962
		},
		{
			"buffer":0,
			"byteLength":1920,
			"byteOffset":30840,
			"target":34963
		}
	],
	"buffers":[
		{
			"byteLength":32760,
			"uri":"icospheres.bin"
		}
	]
}
