{
	"asset":{
		"generator":"Khronos glTF Blender I/O v4.3.47",
		"version":"2.0"
	},
	"scene":0,
	"scenes":[
		{
			"name":"Scene",
			"nodes":[
				0,
				1,
				2
			]
		}
	],
	"nodes":[
		{
			"mesh":0,
			"name":"Lighthouse"
		},
		{
			"mesh":1,
			"name":"Railing"
		},
		{
			"mesh":2,
			"name":"Posts"
		}
	],
	"materials":[
		{
			"doubleSided":true,
			"name":"Base",
			"pbrMetallicRoughness":{
				"baseColorFactor":[
					0.02913401648402214,
					0.051786258816719055,
					0.37711602449417114,
					1
				],
				"metallicFactor":0,
				"roughnessFactor":0.5
			}
		},
		{
			"doubleSided":true,
			"name":"Dirt",
			"pbrMetallicRoughness":{
				"baseColorFactor":[
					0.17434602975845337,
					0.10335804522037506,
					0.04103624075651169,
					1
				],
				"metallicFactor":0,
				"roughnessFactor":0.5
			}
		},
		{
			"doubleSided":true,
			"name":"White",
			"pbrMetallicRoughness":{
				"baseColorFactor":[
					0.800000011920929,
					0.800000011920929,
					0.800000011920929,
					1
				],
				"metallicFactor":0,
				"roughnessFactor":0.5
			}
		},
		{
			"doubleSided":true,
			"name":"Red",
			"pbrMetallicRoughness":{
				"baseColorFactor":[
					0.6551242470741272,
					0.03269415348768234,
					0.012951580807566643,
					1
				],
				"metallicFactor":0,
				"roughnessFactor":0.5
			}
		},
		{
			"alphaMode":"MASK",
			"doubleSided":true,
			"name":"Glass",
			"pbrMetallicRoughness":{
				"baseColorFactor":[
					0.446002721786499,
					0.5678695440292358,
					0.8518310189247131,
					0
				],
				"metallicFactor":0,
				"roughnessFactor":0
			}
		}
	],
	"meshes":[
		{
			"name":"Cylinder",
			"primitives":[
				{
					"attributes":{
						"POSITION":0,
						"NORMAL":1,
						"TEXCOORD_0":2
					},
					"indices":3,
					"material":0
				},
				{
					"attributes":{
						"POSITION":4,
						"NORMAL":5,
						"TEXCOORD_0":6
					},
					"indices":7,
					"material":1
				},
				{
					"attributes":{
						"POSITION":8,
						"NORMAL":9,
						"TEXCOORD_0":10
					},
					"indices":11,
					"material":2
				},
				{
					"attributes":{
						"POSITION":12,
						"NORMAL":13,
						"TEXCOORD_0":14
					},
					"indices":15,
					"material":3
				},
				{
					"attributes":{
						"POSITION":16,
						"NORMAL":17,
						"TEXCOORD_0":18
					},
					"indices":19,
					"material":4
				}
			]
		},
		{
			"name":"Torus",
			"primitives":[
				{
					"attributes":{
						"POSITION":20,
						"NORMAL":21,
						"TEXCOORD_0":22
					},
					"indices":23,
					"material":3
				}
			]
		},
		{
			"name":"Cylinder.001",
			"primitives":[
				{
					"attributes":{
						"POSITION":24,
						"NORMAL":25,
						"TEXCOORD_0":26
					},
					"indices":27,
					"material":3
				}
			]
		}
	],
	"accessors":[
		{
			"bufferView":0,
			"componentType":5126,
			"count":352,
			"max":[
				0.11819455772638321,
				-0.28709569573402405,
				-1.551411509513855
			],
			"min":[
				-0.11584210395812988,
				-0.4344042241573334,
				-1.7863218784332275
			],
			"type":"VEC3"
		},
		{
			"bufferView":1,
			"componentType":5126,
			"count":352,
			"type":"VEC3"
		},
		{
			"bufferView":2,
			"componentType":5126,
			"count":352,
			"type":"VEC2"
		},
		{
			"bufferView":3,
			"componentType":5123,
			"count":624,
			"type":"SCALAR"
		},
		{
			"bufferView":4,
			"componentType":5126,
			"count":4,
			"max":[
				0.04661349952220917,
				-0.3424268662929535,
				-1.5600919723510742
			],
			"min":[
				0.011478066444396973,
				-0.4344042241573334,
				-1.5695065259933472
			],
			"type":"VEC3"
		},
		{
			"bufferView":5,
			"componentType":5126,
			"count":4,
			"type":"VEC3"
		},
		{
			"bufferView":6,
			"componentType":5126,
			"count":4,
			"type":"VEC2"
		},
		{
			"bufferView":7,
			"componentType":5123,
			"count":6,
			"type":"SCALAR"
		},
		{
			"bufferView":8,
			"componentType":5126,
			"count":144,
			"max":[
				0.09788195788860321,
				0.26178738474845886,
				-1.5727161169052124
			],
			"min":[
				-0.09561580419540405,
				-0.28709569573402405,
				-1.7662137746810913
			],
			"type":"VEC3"
		},
		{
			"bufferView":9,
			"componentType":5126,
			"count":144,
			"type":"VEC3"
		},
		{
			"bufferView":10,
			"componentType":5126,
			"count":144,
			"type":"VEC2"
		},
		{
			"bufferView":11,
			"componentType":5123,
			"count":216,
			"type":"SCALAR"
		},
		{
			"bufferView":12,
			"componentType":5126,
			"count":650,
			"max":[
				0.09313556551933289,
				0.42514920234680176,
				-1.5797250270843506
			],
			"min":[
				-0.09252004325389862,
				-0.17731913924217224,
				-1.765380620956421
			],
			"type":"VEC3"
		},
		{
			"bufferView":13,
			"componentType":5126,
			"count":650,
			"type":"VEC3"
		},
		{
			"bufferView":14,
			"componentType":5126,
			"count":650,
			"type":"VEC2"
		},
		{
			"bufferView":15,
			"componentType":5123,
			"count":1110,
			"type":"SCALAR"
		},
		{
			"bufferView":16,
			"componentType":5126,
			"count":24,
			"max":[
				0.044842321425676346,
				0.33125948905944824,
				-1.6280182600021362
			],
			"min":[
				-0.04422679543495178,
				0.2795994281768799,
				-1.7170873880386353
			],
			"type":"VEC3"
		},
		{
			"bufferView":17,
			"componentType":5126,
			"count":24,
			"type":"VEC3"
		},
		{
			"bufferView":18,
			"componentType":5126,
			"count":24,
			"type":"VEC2"
		},
		{
			"bufferView":19,
			"componentType":5123,
			"count":36,
			"type":"SCALAR"
		},
		{
			"bufferView":20,
			"componentType":5126,
			"count":768,
			"max":[
				0.09288137406110764,
				0.3059805631637573,
				-1.580816388130188
			],
			"min":[
				-0.09288137406110764,
				0.3020697832107544,
				-1.7665791511535645
			],
			"type":"VEC3"
		},
		{
			"bufferView":21,
			"componentType":5126,
			"count":768,
			"type":"VEC3"
		},
		{
			"bufferView":22,
			"componentType":5126,
			"count":768,
			"type":"VEC2"
		},
		{
			"bufferView":23,
			"componentType":5123,
			"count":1152,
			"type":"SCALAR"
		},
		{
			"bufferView":24,
			"componentType":5126,
			"count":576,
			"max":[
				0.09154228866100311,
				0.3024078607559204,
				-1.5820101499557495
			],
			"min":[
				-0.09152983874082565,
				0.27405455708503723,
				-1.765226125717163
			],
			"type":"VEC3"
		},
		{
			"bufferView":25,
			"componentType":5126,
			"count":576,
			"type":"VEC3"
		},
		{
			"bufferView":26,
			"componentType":5126,
			"count":576,
			"type":"VEC2"
		},
		{
			"bufferView":27,
			"componentType":5123,
			"count":1008,
			"type":"SCALAR"
		}
	],
	"bufferViews":[
		{
			"buffer":0,
			"byteLength":4224,
			"byteOffset":0,
			"target":34962
		},
		{
			"buffer":0,
			"byteLength":4224,
			"byteOffset":4224,
			"target":34962
		},
		{
			"buffer":0,
			"byteLength":2816,
			"byteOffset":8448,
			"target":34962
		},
		{
			"buffer":0,
			"byteLength":1248,
			"byteOffset":11264,
			"target":34963
		},
		{
			"buffer":0,
			"byteLength":48,
			"byteOffset":12512,
			"target":34962
		},
		{
			"buffer":0,
			"byteLength":48,
			"byteOffset":12560,
			"target":34962
		},
		{
			"buffer":0,
			"byteLength":32,
			"byteOffset":12608,
			"target":34962
		},
		{
			"buffer":0,
			"byteLength":12,
			"byteOffset":12640,
			"target":34963
		},
		{
			"buffer":0,
			"byteLength":1728,
			"byteOffset":12652,
			"target":34962
		},
		{
			"buffer":0,
			"byteLength":1728,
			"byteOffset":14380,
			"target":34962
		},
		{
			"buffer":0,
			"byteLength":1152,
			"byteOffset":16108,
			"target":34962
		},
		{
			"buffer":0,
			"byteLength":432,
			"byteOffset":17260,
			"target":34963
		},
		{
			"buffer":0,
			"byteLength":7800,
			"byteOffset":17692,
			"target":34962
		},
		{
			"buffer":0,
			"byteLength":7800,
			"byteOffset":25492,
			"target":34962
		},
		{
			"buffer":0,
			"byteLength":5200,
			"byteOffset":33292,
			"target":34962
		},
		{
			"buffer":0,
			"byteLength":2220,
			"byteOffset":38492,
			"target":34963
		},
		{
			"buffer":0,
			"byteLength":288,
			"byteOffset":40712,
			"target":34962
		},
		{
			"buffer":0,
			"byteLength":288,
			"byteOffset":41000,
			"target":34962
		},
		{
			"buffer":0,
			"byteLength":192,
			"byteOffset":41288,
			"target":34962
		},
		{
			"buffer":0,
			"byteLength":72,
			"byteOffset":41480,
			"target":34963
		},
		{
			"buffer":0,
			"byteLength":9216,
			"byteOffset":41552,
			"target":34962
		},
		{
			"buffer":0,
			"byteLength":9216,
			"byteOffset":50768,
			"target":34962
		},
		{
			"buffer":0,
			"byteLength":6144,
			"byteOffset":59984,
			"target":34962
		},
		{
			"buffer":0,
			"byteLength":2304,
			"byteOffset":66128,
			"target":34963
		},
		{
			"buffer":0,
			"byteLength":6912,
			"byteOffset":68432,
			"target":34962
		},
		{
			"buffer":0,
			"byteLength":6912,
			"byteOffset":75344,
			"target":34962
		},
		{
			"buffer":0,
			"byteLength":4608,
			"byteOffset":82256,
			"target":34962
		},
		{
			"buffer":0,
			"byteLength":2016,
			"byteOffset":86864,
			"target":34963
		}
	],
	"buffers":[
		{
			"byteLength":88880,
			"uri":"lighthouse.bin"
		}
	]
}
