{
	"asset":{
		"generator":"Khronos glTF Blender I/O v4.3.47",
		"version":"2.0"
	},
	"extensionsUsed":[
		"KHR_lights_punctual"
	],
	"extensionsRequired":[
		"KHR_lights_punctual"
	],
	"extensions":{
		"KHR_lights_punctual":{
			"lights":[
				{
					"color":[
						1,
						1,
						1
					],
					"intensity":7636.371877082963,
					"type":"point",
					"name":"Point"
				},
				{
					"color":[
						1,
						1,
						1
					],
					"intensity":5435.141306588225,
					"type":"point",
					"name":"Point.001"
				}
			]
		}
	},
	"scene":0,
	"scenes":[
		{
			"name":"Scene",
			"nodes":[
				0,
				1,
				2,
				3,
				4,
				5
			]
		}
	],
	"nodes":[
		{
			"mesh":0,
			"name":"Room"
		},
		{
			"mesh":1,
			"name":"Suzanne"
		},
		{
			"camera":0,
			"name":"Camera",
			"rotation":[
				-0.1744173765182495,
				0.1052333191037178,
				0.018751047551631927,
				0.9788528680801392
			],
			"translation":[
				0.6361544132232666,
				1.4027235507965088,
				2.73911452293396
			]
		},
		{
			"extensions":{
				"KHR_lights_punctual":{
					"light":0
				}
			},
			"name":"Point",
			"rotation":[
				-0.7071068286895752,
				0,
				0,
				0.7071068286895752
			],
			"translation":[
				-0.6262334585189819,
				2.0163395404815674,
				2.2483577728271484
			]
		},
		{
			"mesh":2,
			"name":"Podium"
		},
		{
			"extensions":{
				"KHR_lights_punctual":{
					"light":1
				}
			},
			"name":"Point.001",
			"rotation":[
				-0.7071068286895752,
				0,
				0,
				0.7071068286895752
			],
			"translation":[
				0.6000000238418579,
				2.0163395404815674,
				2.2483577728271484
			]
		}
	],
	"cameras":[
		{
			"name":"Camera.003",
			"perspective":{
				"aspectRatio":1.7777777777777777,
				"yfov":0.39959652046304894,
				"zfar":1000,
				"znear":0.10000000149011612
			},
			"type":"perspective"
		}
	],
	"materials":[
		{
			"doubleSided":true,
			"name":"Room",
			"pbrMetallicRoughness":{
				"baseColorFactor":[
					0.8488538861274719,
					0.8488538861274719,
					0.8488538861274719,
					1
				],
				"metallicFactor":0,
				"roughnessFactor":0.5
			}
		},
		{
			"doubleSided":true,
			"name":"Black",
			"pbrMetallicRoughness":{
				"baseColorFactor":[
					0,
					0,
					0,
					1
				],
				"metallicFactor":0,
				"roughnessFactor":0.5
			}
		},
		{
			"doubleSided":true,
			"name":"White",
			"pbrMetallicRoughness":{
				"metallicFactor":0,
				"roughnessFactor":0.5
			}
		},
		{
			"doubleSided":true,
			"name":"Blue",
			"pbrMetallicRoughness":{
				"baseColorFactor":[
					0.03560072183609009,
					0.036889251321554184,
					0.6239606738090515,
					1
				],
				"metallicFactor":0,
				"roughnessFactor":0.5
			}
		},
		{
			"doubleSided":true,
			"name":"Pink",
			"pbrMetallicRoughness":{
				"baseColorFactor":[
					0.8014845848083496,
					0.03522278741002083,
					0.03522278741002083,
					1
				],
				"metallicFactor":0,
				"roughnessFactor":0.5
			}
		},
		{
			"doubleSided":true,
			"name":"Podium",
			"pbrMetallicRoughness":{
				"baseColorFactor":[
					0.01860322430729866,
					0.01860322430729866,
					0.01860322430729866,
					1
				],
				"metallicFactor":0
			}
		},
		{
			"doubleSided":true,
			"name":"Mirror",
			"pbrMetallicRoughness":{
				"baseColorFactor":[
					0.800000011920929,
					0.800000011920929,
					0.800000011920929,
					1
				],
				"roughnessFactor":0
			}
		}
	],
	"meshes":[
		{
			"name":"Cube.002",
			"primitives":[
				{
					"attributes":{
						"POSITION":0,
						"NORMAL":1,
						"TEXCOORD_0":2
					},
					"indices":3,
					"material":0
				}
			]
		},
		{
			"name":"Suzanne",
			"primitives":[
				{
					"attributes":{
						"POSITION":4,
						"NORMAL":5,
						"TEXCOORD_0":6
					},
					"indices":7,
					"material":1
				},
				{
					"attributes":{
						"POSITION":8,
						"NORMAL":9,
						"TEXCOORD_0":10
					},
					"indices":11,
					"material":2
				},
				{
					"attributes":{
						"POSITION":12,
						"NORMAL":13,
						"TEXCOORD_0":14
					},
					"indices":15,
					"material":3
				},
				{
					"attributes":{
						"POSITION":16,
						"NORMAL":17,
						"TEXCOORD_0":18
					},
					"indices":19,
					"material":4
				}
			]
		},
		{
			"name":"Cube.001",
			"primitives":[
				{
					"attributes":{
						"POSITION":20,
						"NORMAL":21,
						"TEXCOORD_0":22
					},
					"indices":23,
					"material":5
				},
				{
					"attributes":{
						"POSITION":24,
						"NORMAL":25,
						"TEXCOORD_0":26
					},
					"indices":27,
					"material":6
				}
			]
		}
	],
	"accessors":[
		{
			"bufferView":0,
			"componentType":5126,
			"count":42,
			"max":[
				1.5,
				0.8686257600784302,
				3.4780077934265137
			],
			"min":[
				-1.600000023841858,
				-0.10000000149011612,
				-1.392059564590454
			],
			"type":"VEC3"
		},
		{
			"bufferView":1,
			"componentType":5126,
			"count":42,
			"type":"VEC3"
		},
		{
			"bufferView":2,
			"componentType":5126,
			"count":42,
			"type":"VEC2"
		},
		{
			"bufferView":3,
			"componentType":5123,
			"count":72,
			"type":"SCALAR"
		},
		{
			"bufferView":4,
			"componentType":5126,
			"count":48,
			"max":[
				0.11556762456893921,
				0.826675534248352,
				0.14272499084472656
			],
			"min":[
				-0.026536375284194946,
				0.7716524004936218,
				0.0681837722659111
			],
			"type":"VEC3"
		},
		{
			"bufferView":5,
			"componentType":5126,
			"count":48,
			"type":"VEC3"
		},
		{
			"bufferView":6,
			"componentType":5126,
			"count":48,
			"type":"VEC2"
		},
		{
			"bufferView":7,
			"componentType":5123,
			"count":48,
			"type":"SCALAR"
		},
		{
			"bufferView":8,
			"componentType":5126,
			"count":64,
			"max":[
				0.12393492460250854,
				0.8285008668899536,
				0.13958768546581268
			],
			"min":[
				-0.04201009124517441,
				0.7528224587440491,
				0.04821367934346199
			],
			"type":"VEC3"
		},
		{
			"bufferView":9,
			"componentType":5126,
			"count":64,
			"type":"VEC3"
		},
		{
			"bufferView":10,
			"componentType":5126,
			"count":64,
			"type":"VEC2"
		},
		{
			"bufferView":11,
			"componentType":5123,
			"count":96,
			"type":"SCALAR"
		},
		{
			"bufferView":12,
			"componentType":5126,
			"count":1808,
			"max":[
				0.19849048554897308,
				0.8685417771339417,
				0.19401243329048157
			],
			"min":[
				-0.2089037448167801,
				0.5990855693817139,
				-0.16607749462127686
			],
			"type":"VEC3"
		},
		{
			"bufferView":13,
			"componentType":5126,
			"count":1808,
			"type":"VEC3"
		},
		{
			"bufferView":14,
			"componentType":5126,
			"count":1808,
			"type":"VEC2"
		},
		{
			"bufferView":15,
			"componentType":5123,
			"count":2694,
			"type":"SCALAR"
		},
		{
			"bufferView":16,
			"componentType":5126,
			"count":46,
			"max":[
				0.1232818067073822,
				0.6664405465126038,
				0.18703693151474
			],
			"min":[
				0.08948852121829987,
				0.638903021812439,
				0.16280624270439148
			],
			"type":"VEC3"
		},
		{
			"bufferView":17,
			"componentType":5126,
			"count":46,
			"type":"VEC3"
		},
		{
			"bufferView":18,
			"componentType":5126,
			"count":46,
			"type":"VEC2"
		},
		{
			"bufferView":19,
			"componentType":5123,
			"count":66,
			"type":"SCALAR"
		},
		{
			"bufferView":20,
			"componentType":5126,
			"count":388,
			"max":[
				0.2851364016532898,
				0.600583553314209,
				0.2851364016532898
			],
			"min":[
				-0.2851364016532898,
				-6.645917892456055e-05,
				-0.2851364016532898
			],
			"type":"VEC3"
		},
		{
			"bufferView":21,
			"componentType":5126,
			"count":388,
			"type":"VEC3"
		},
		{
			"bufferView":22,
			"componentType":5126,
			"count":388,
			"type":"VEC2"
		},
		{
			"bufferView":23,
			"componentType":5123,
			"count":582,
			"type":"SCALAR"
		},
		{
			"bufferView":24,
			"componentType":5126,
			"count":4,
			"max":[
				0.2564176619052887,
				0.600583553314209,
				0.2564176619052887
			],
			"min":[
				-0.2564176619052887,
				0.600583553314209,
				-0.2564176619052887
			],
			"type":"VEC3"
		},
		{
			"bufferView":25,
			"componentType":5126,
			"count":4,
			"type":"VEC3"
		},
		{
			"bufferView":26,
			"componentType":5126,
			"count":4,
			"type":"VEC2"
		},
		{
			"bufferView":27,
			"componentType":5123,
			"count":6,
			"type":"SCALAR"
		}
	],
	"bufferViews":[
		{
			"buffer":0,
			"byteLength":504,
			"byteOffset":0,
			"target":34962
		},
		{
			"buffer":0,
			"byteLength":504,
			"byteOffset":504,
			"target":34962
		},
		{
			"buffer":0,
			"byteLength":336,
			"byteOffset":1008,
			"target":34962
		},
		{
			"buffer":0,
			"byteLength":144,
			"byteOffset":1344,
			"target":34963
		},
		{
			"buffer":0,
			"byteLength":576,
			"byteOffset":1488,
			"target":34962
		},
		{
			"buffer":0,
			"byteLength":576,
			"byteOffset":2064,
			"target":34962
		},
		{
			"buffer":0,
			"byteLength":384,
			"byteOffset":2640,
			"target":34962
		},
		{
			"buffer":0,
			"byteLength":96,
			"byteOffset":3024,
			"target":34963
		},
		{
			"buffer":0,
			"byteLength":768,
			"byteOffset":3120,
			"target":34962
		},
		{
			"buffer":0,
			"byteLength":768,
			"byteOffset":3888,
			"target":34962
		},
		{
			"buffer":0,
			"byteLength":512,
			"byteOffset":4656,
			"target":34962
		},
		{
			"buffer":0,
			"byteLength":192,
			"byteOffset":5168,
			"target":34963
		},
		{
			"buffer":0,
			"byteLength":21696,
			"byteOffset":5360,
			"target":34962
		},
		{
			"buffer":0,
			"byteLength":21696,
			"byteOffset":27056,
			"target":34962
		},
		{
			"buffer":0,
			"byteLength":14464,
			"byteOffset":48752,
			"target":34962
		},
		{
			"buffer":0,
			"byteLength":5388,
			"byteOffset":63216,
			"target":34963
		},
		{
			"buffer":0,
			"byteLength":552,
			"byteOffset":68604,
			"target":34962
		},
		{
			"buffer":0,
			"byteLength":552,
			"byteOffset":69156,
			"target":34962
		},
		{
			"buffer":0,
			"byteLength":368,
			"byteOffset":69708,
			"target":34962
		},
		{
			"buffer":0,
			"byteLength":132,
			"byteOffset":70076,
			"target":34963
		},
		{
			"buffer":0,
			"byteLength":4656,
			"byteOffset":70208,
			"target":34962
		},
		{
			"buffer":0,
			"byteLength":4656,
			"byteOffset":74864,
			"target":34962
		},
		{
			"buffer":0,
			"byteLength":3104,
			"byteOffset":79520,
			"target":34962
		},
		{
			"buffer":0,
			"byteLength":1164,
			"byteOffset":82624,
			"target":34963
		},
		{
			"buffer":0,
			"byteLength":48,
			"byteOffset":83788,
			"target":34962
		},
		{
			"buffer":0,
			"byteLength":48,
			"byteOffset":83836,
			"target":34962
		},
		{
			"buffer":0,
			"byteLength":32,
			"byteOffset":83884,
			"target":34962
		},
		{
			"buffer":0,
			"byteLength":12,
			"byteOffset":83916,
			"target":34963
		}
	],
	"buffers":[
		{
			"byteLength":83928,
			"uri":"monkey.bin"
		}
	]
}
