{
	"asset":{
		"generator":"Khronos glTF Blender I/O v4.3.47",
		"version":"2.0"
	},
	"scene":0,
	"scenes":[
		{
			"name":"Scene",
			"nodes":[
				0,
				1,
				2,
				3
			]
		}
	],
	"nodes":[
		{
			"mesh":0,
			"name":"Room"
		},
		{
			"mesh":1,
			"name":"Suzanne"
		},
		{
			"camera":0,
			"name":"Camera",
			"rotation":[
				-0.13491374254226685,
				0.08099793642759323,
				0.011066294275224209,
				0.9874792098999023
			],
			"translation":[
				0.5400002002716064,
				1.4602967500686646,
				3.220635414123535
			]
		},
		{
			"mesh":2,
			"name":"Podium"
		}
	],
	"cameras":[
		{
			"name":"Camera.003",
			"perspective":{
				"aspectRatio":1.7777777777777777,
				"yfov":0.39959652046304894,
				"zfar":1000,
				"znear":0.10000000149011612
			},
			"type":"perspective"
		}
	],
	"materials":[
		{
			"doubleSided":true,
			"name":"Room",
			"pbrMetallicRoughness":{
				"baseColorFactor":[
					0.8101344108581543,
					0.8101344108581543,
					0.8101344108581543,
					1
				],
				"metallicFactor":0,
				"roughnessFactor":0.5
			}
		},
		{
			"doubleSided":true,
			"name":"Floor",
			"pbrMetallicRoughness":{
				"baseColorFactor":[
					0.800000011920929,
					0.800000011920929,
					0.800000011920929,
					1
				],
				"roughnessFactor":0
			}
		},
		{
			"doubleSided":true,
			"name":"Black",
			"pbrMetallicRoughness":{
				"baseColorFactor":[
					0,
					0,
					0,
					1
				],
				"metallicFactor":0,
				"roughnessFactor":0.5
			}
		},
		{
			"doubleSided":true,
			"name":"White",
			"pbrMetallicRoughness":{
				"metallicFactor":0,
				"roughnessFactor":0.5
			}
		},
		{
			"doubleSided":true,
			"name":"Blue",
			"pbrMetallicRoughness":{
				"baseColorFactor":[
					0.036888837814331055,
					0.03820417448878288,
					0.6239606738090515,
					1
				],
				"metallicFactor":0,
				"roughnessFactor":0.5
			}
		},
		{
			"doubleSided":true,
			"name":"Pink",
			"pbrMetallicRoughness":{
				"baseColorFactor":[
					0.8014845848083496,
					0.03522278741002083,
					0.03522278741002083,
					1
				],
				"metallicFactor":0,
				"roughnessFactor":0.5
			}
		},
		{
			"doubleSided":true,
			"name":"Podium",
			"pbrMetallicRoughness":{
				"baseColorFactor":[
					0.7002342939376831,
					0.7002342939376831,
					0.7002342939376831,
					1
				],
				"metallicFactor":0,
				"roughnessFactor":0.5
			}
		}
	],
	"meshes":[
		{
			"name":"Cube.002",
			"primitives":[
				{
					"attributes":{
						"POSITION":0,
						"NORMAL":1,
						"TEXCOORD_0":2
					},
					"indices":3,
					"material":0
				},
				{
					"attributes":{
						"POSITION":4,
						"NORMAL":5,
						"TEXCOORD_0":6
					},
					"indices":7,
					"material":1
				}
			]
		},
		{
			"name":"Suzanne",
			"primitives":[
				{
					"attributes":{
						"POSITION":8,
						"NORMAL":9,
						"TEXCOORD_0":10
					},
					"indices":11,
					"material":2
				},
				{
					"attributes":{
						"POSITION":12,
						"NORMAL":13,
						"TEXCOORD_0":14
					},
					"indices":15,
					"material":3
				},
				{
					"attributes":{
						"POSITION":16,
						"NORMAL":17,
						"TEXCOORD_0":18
					},
					"indices":19,
					"material":4
				},
				{
					"attributes":{
						"POSITION":20,
						"NORMAL":21,
						"TEXCOORD_0":22
					},
					"indices":23,
					"material":5
				}
			]
		},
		{
			"name":"Cube.001",
			"primitives":[
				{
					"attributes":{
						"POSITION":24,
						"NORMAL":25,
						"TEXCOORD_0":26
					},
					"indices":27,
					"material":6
				}
			]
		}
	],
	"accessors":[
		{
			"bufferView":0,
			"componentType":5126,
			"count":40,
			"max":[
				1.5707106590270996,
				1.6029956340789795,
				3.328031539916992
			],
			"min":[
				-1.5707106590270996,
				-0.05773502215743065,
				-1.5707106590270996
			],
			"type":"VEC3"
		},
		{
			"bufferView":1,
			"componentType":5126,
			"count":40,
			"type":"VEC3"
		},
		{
			"bufferView":2,
			"componentType":5126,
			"count":40,
			"type":"VEC2"
		},
		{
			"bufferView":3,
			"componentType":5123,
			"count":66,
			"type":"SCALAR"
		},
		{
			"bufferView":4,
			"componentType":5126,
			"count":12,
			"max":[
				1.5707106590270996,
				1.6029956340789795,
				-1.5
			],
			"min":[
				-1.5707106590270996,
				-0.05773502215743065,
				-1.5707106590270996
			],
			"type":"VEC3"
		},
		{
			"bufferView":5,
			"componentType":5126,
			"count":12,
			"type":"VEC3"
		},
		{
			"bufferView":6,
			"componentType":5126,
			"count":12,
			"type":"VEC2"
		},
		{
			"bufferView":7,
			"componentType":5123,
			"count":18,
			"type":"SCALAR"
		},
		{
			"bufferView":8,
			"componentType":5126,
			"count":48,
			"max":[
				0.16421060264110565,
				0.873873770236969,
				0.13339564204216003
			],
			"min":[
				-0.016318753361701965,
				0.8076860904693604,
				0.07092852890491486
			],
			"type":"VEC3"
		},
		{
			"bufferView":9,
			"componentType":5126,
			"count":48,
			"type":"VEC3"
		},
		{
			"bufferView":10,
			"componentType":5126,
			"count":48,
			"type":"VEC2"
		},
		{
			"bufferView":11,
			"componentType":5123,
			"count":48,
			"type":"SCALAR"
		},
		{
			"bufferView":12,
			"componentType":5126,
			"count":64,
			"max":[
				0.17902684211730957,
				0.8760694265365601,
				0.12796056270599365
			],
			"min":[
				-0.03405706211924553,
				0.7850354313850403,
				0.04763483256101608
			],
			"type":"VEC3"
		},
		{
			"bufferView":13,
			"componentType":5126,
			"count":64,
			"type":"VEC3"
		},
		{
			"bufferView":14,
			"componentType":5126,
			"count":64,
			"type":"VEC2"
		},
		{
			"bufferView":15,
			"componentType":5123,
			"count":96,
			"type":"SCALAR"
		},
		{
			"bufferView":16,
			"componentType":5126,
			"count":1808,
			"max":[
				0.3141782581806183,
				0.9242348670959473,
				0.2127397209405899
			],
			"min":[
				-0.20636367797851562,
				0.6001043319702148,
				-0.19462059438228607
			],
			"type":"VEC3"
		},
		{
			"bufferView":17,
			"componentType":5126,
			"count":1808,
			"type":"VEC3"
		},
		{
			"bufferView":18,
			"componentType":5126,
			"count":1808,
			"type":"VEC2"
		},
		{
			"bufferView":19,
			"componentType":5123,
			"count":2694,
			"type":"SCALAR"
		},
		{
			"bufferView":20,
			"componentType":5126,
			"count":46,
			"max":[
				0.14975565671920776,
				0.681126058101654,
				0.2088562548160553
			],
			"min":[
				0.1096661388874054,
				0.6480010151863098,
				0.18551436066627502
			],
			"type":"VEC3"
		},
		{
			"bufferView":21,
			"componentType":5126,
			"count":46,
			"type":"VEC3"
		},
		{
			"bufferView":22,
			"componentType":5126,
			"count":46,
			"type":"VEC2"
		},
		{
			"bufferView":23,
			"componentType":5123,
			"count":66,
			"type":"SCALAR"
		},
		{
			"bufferView":24,
			"componentType":5126,
			"count":24,
			"max":[
				0.285847008228302,
				0.600583553314209,
				0.285847008228302
			],
			"min":[
				-0.285847008228302,
				-6.645917892456055e-05,
				-0.285847008228302
			],
			"type":"VEC3"
		},
		{
			"bufferView":25,
			"componentType":5126,
			"count":24,
			"type":"VEC3"
		},
		{
			"bufferView":26,
			"componentType":5126,
			"count":24,
			"type":"VEC2"
		},
		{
			"bufferView":27,
			"componentType":5123,
			"count":36,
			"type":"SCALAR"
		}
	],
	"bufferViews":[
		{
			"buffer":0,
			"byteLength":480,
			"byteOffset":0,
			"target":34962
		},
		{
			"buffer":0,
			"byteLength":480,
			"byteOffset":480,
			"target":34962
		},
		{
			"buffer":0,
			"byteLength":320,
			"byteOffset":960,
			"target":34962
		},
		{
			"buffer":0,
			"byteLength":132,
			"byteOffset":1280,
			"target":34963
		},
		{
			"buffer":0,
			"byteLength":144,
			"byteOffset":1412,
			"target":34962
		},
		{
			"buffer":0,
			"byteLength":144,
			"byteOffset":1556,
			"target":34962
		},
		{
			"buffer":0,
			"byteLength":96,
			"byteOffset":1700,
			"target":34962
		},
		{
			"buffer":0,
			"byteLength":36,
			"byteOffset":1796,
			"target":34963
		},
		{
			"buffer":0,
			"byteLength":576,
			"byteOffset":1832,
			"target":34962
		},
		{
			"buffer":0,
			"byteLength":576,
			"byteOffset":2408,
			"target":34962
		},
		{
			"buffer":0,
			"byteLength":384,
			"byteOffset":2984,
			"target":34962
		},
		{
			"buffer":0,
			"byteLength":96,
			"byteOffset":3368,
			"target":34963
		},
		{
			"buffer":0,
			"byteLength":768,
			"byteOffset":3464,
			"target":34962
		},
		{
			"buffer":0,
			"byteLength":768,
			"byteOffset":4232,
			"target":34962
		},
		{
			"buffer":0,
			"byteLength":512,
			"byteOffset":5000,
			"target":34962
		},
		{
			"buffer":0,
			"byteLength":192,
			"byteOffset":5512,
			"target":34963
		},
		{
			"buffer":0,
			"byteLength":21696,
			"byteOffset":5704,
			"target":34962
		},
		{
			"buffer":0,
			"byteLength":21696,
			"byteOffset":27400,
			"target":34962
		},
		{
			"buffer":0,
			"byteLength":14464,
			"byteOffset":49096,
			"target":34962
		},
		{
			"buffer":0,
			"byteLength":5388,
			"byteOffset":63560,
			"target":34963
		},
		{
			"buffer":0,
			"byteLength":552,
			"byteOffset":68948,
			"target":34962
		},
		{
			"buffer":0,
			"byteLength":552,
			"byteOffset":69500,
			"target":34962
		},
		{
			"buffer":0,
			"byteLength":368,
			"byteOffset":70052,
			"target":34962
		},
		{
			"buffer":0,
			"byteLength":132,
			"byteOffset":70420,
			"target":34963
		},
		{
			"buffer":0,
			"byteLength":288,
			"byteOffset":70552,
			"target":34962
		},
		{
			"buffer":0,
			"byteLength":288,
			"byteOffset":70840,
			"target":34962
		},
		{
			"buffer":0,
			"byteLength":192,
			"byteOffset":71128,
			"target":34962
		},
		{
			"buffer":0,
			"byteLength":72,
			"byteOffset":71320,
			"target":34963
		}
	],
	"buffers":[
		{
			"byteLength":71392,
			"uri":"monkey.bin"
		}
	]
}
