{
	"asset":{
		"generator":"Khronos glTF Blender I/O v4.3.47",
		"version":"2.0"
	},
	"scene":0,
	"scenes":[
		{
			"name":"Scene",
			"nodes":[
				0,
				1,
				2,
				3
			]
		}
	],
	"nodes":[
		{
			"mesh":0,
			"name":"Room"
		},
		{
			"mesh":1,
			"name":"Suzanne"
		},
		{
			"camera":0,
			"name":"Camera",
			"rotation":[
				-0.151146799325943,
				0,
				0,
				0.9885113835334778
			],
			"translation":[
				0,
				1.4602967500686646,
				3.220635414123535
			]
		},
		{
			"mesh":2,
			"name":"Cube.001"
		}
	],
	"cameras":[
		{
			"name":"Camera.003",
			"perspective":{
				"aspectRatio":1.7777777777777777,
				"yfov":0.39959652046304894,
				"zfar":1000,
				"znear":0.10000000149011612
			},
			"type":"perspective"
		}
	],
	"materials":[
		{
			"doubleSided":true,
			"name":"Room",
			"pbrMetallicRoughness":{
				"baseColorFactor":[
					0.8101344108581543,
					0.8101344108581543,
					0.8101344108581543,
					1
				],
				"metallicFactor":0
			}
		},
		{
			"doubleSided":true,
			"name":"Blue",
			"pbrMetallicRoughness":{
				"baseColorFactor":[
					0.036888837814331055,
					0.03820417448878288,
					0.6239606738090515,
					1
				],
				"metallicFactor":0
			}
		},
		{
			"doubleSided":true,
			"name":"Black",
			"pbrMetallicRoughness":{
				"baseColorFactor":[
					0,
					0,
					0,
					1
				],
				"metallicFactor":0,
				"roughnessFactor":0.5
			}
		},
		{
			"doubleSided":true,
			"name":"White",
			"pbrMetallicRoughness":{
				"metallicFactor":0,
				"roughnessFactor":0.5
			}
		},
		{
			"doubleSided":true,
			"name":"Pink",
			"pbrMetallicRoughness":{
				"baseColorFactor":[
					0.8014845848083496,
					0.03522278741002083,
					0.03522278741002083,
					1
				],
				"metallicFactor":0,
				"roughnessFactor":0.5
			}
		},
		{
			"doubleSided":true,
			"name":"Podium",
			"pbrMetallicRoughness":{
				"baseColorFactor":[
					0.7002342939376831,
					0.7002342939376831,
					0.7002342939376831,
					1
				],
				"metallicFactor":0
			}
		}
	],
	"meshes":[
		{
			"name":"Cube.002",
			"primitives":[
				{
					"attributes":{
						"POSITION":0,
						"NORMAL":1,
						"TEXCOORD_0":2
					},
					"indices":3,
					"material":0
				}
			]
		},
		{
			"name":"Suzanne",
			"primitives":[
				{
					"attributes":{
						"POSITION":4,
						"NORMAL":5,
						"TEXCOORD_0":6
					},
					"indices":7,
					"material":1
				},
				{
					"attributes":{
						"POSITION":8,
						"NORMAL":9,
						"TEXCOORD_0":10
					},
					"indices":11,
					"material":2
				},
				{
					"attributes":{
						"POSITION":12,
						"NORMAL":13,
						"TEXCOORD_0":14
					},
					"indices":15,
					"material":3
				},
				{
					"attributes":{
						"POSITION":16,
						"NORMAL":17,
						"TEXCOORD_0":18
					},
					"indices":19,
					"material":4
				}
			]
		},
		{
			"name":"Cube.001",
			"primitives":[
				{
					"attributes":{
						"POSITION":20,
						"NORMAL":21,
						"TEXCOORD_0":22
					},
					"indices":23,
					"material":5
				}
			]
		}
	],
	"accessors":[
		{
			"bufferView":0,
			"componentType":5126,
			"count":16,
			"max":[
				1.5,
				3,
				1.5
			],
			"min":[
				-1.5,
				0,
				-1.5
			],
			"type":"VEC3"
		},
		{
			"bufferView":1,
			"componentType":5126,
			"count":16,
			"type":"VEC3"
		},
		{
			"bufferView":2,
			"componentType":5126,
			"count":16,
			"type":"VEC2"
		},
		{
			"bufferView":3,
			"componentType":5123,
			"count":24,
			"type":"SCALAR"
		},
		{
			"bufferView":4,
			"componentType":5126,
			"count":1808,
			"max":[
				0.2852649390697479,
				0.9819722175598145,
				0.23960450291633606
			],
			"min":[
				-0.232362300157547,
				0.6509212255477905,
				-0.16453668475151062
			],
			"type":"VEC3"
		},
		{
			"bufferView":5,
			"componentType":5126,
			"count":1808,
			"type":"VEC3"
		},
		{
			"bufferView":6,
			"componentType":5126,
			"count":1808,
			"type":"VEC2"
		},
		{
			"bufferView":7,
			"componentType":5123,
			"count":2694,
			"type":"SCALAR"
		},
		{
			"bufferView":8,
			"componentType":5126,
			"count":48,
			"max":[
				0.12992027401924133,
				0.9306405186653137,
				0.16787026822566986
			],
			"min":[
				-0.04897204041481018,
				0.8566700220108032,
				0.10797528177499771
			],
			"type":"VEC3"
		},
		{
			"bufferView":9,
			"componentType":5126,
			"count":48,
			"type":"VEC3"
		},
		{
			"bufferView":10,
			"componentType":5126,
			"count":48,
			"type":"VEC2"
		},
		{
			"bufferView":11,
			"componentType":5123,
			"count":48,
			"type":"SCALAR"
		},
		{
			"bufferView":12,
			"componentType":5126,
			"count":64,
			"max":[
				0.1450256109237671,
				0.9335520267486572,
				0.16242846846580505
			],
			"min":[
				-0.0661260262131691,
				0.8339738249778748,
				0.0846848413348198
			],
			"type":"VEC3"
		},
		{
			"bufferView":13,
			"componentType":5126,
			"count":64,
			"type":"VEC3"
		},
		{
			"bufferView":14,
			"componentType":5126,
			"count":64,
			"type":"VEC2"
		},
		{
			"bufferView":15,
			"componentType":5123,
			"count":96,
			"type":"SCALAR"
		},
		{
			"bufferView":16,
			"componentType":5126,
			"count":46,
			"max":[
				0.12320663034915924,
				0.7336020469665527,
				0.23694124817848206
			],
			"min":[
				0.0831897109746933,
				0.6995264887809753,
				0.21413376927375793
			],
			"type":"VEC3"
		},
		{
			"bufferView":17,
			"componentType":5126,
			"count":46,
			"type":"VEC3"
		},
		{
			"bufferView":18,
			"componentType":5126,
			"count":46,
			"type":"VEC2"
		},
		{
			"bufferView":19,
			"componentType":5123,
			"count":66,
			"type":"SCALAR"
		},
		{
			"bufferView":20,
			"componentType":5126,
			"count":24,
			"max":[
				0.285847008228302,
				0.6505835652351379,
				0.285847008228302
			],
			"min":[
				-0.285847008228302,
				-6.645917892456055e-05,
				-0.285847008228302
			],
			"type":"VEC3"
		},
		{
			"bufferView":21,
			"componentType":5126,
			"count":24,
			"type":"VEC3"
		},
		{
			"bufferView":22,
			"componentType":5126,
			"count":24,
			"type":"VEC2"
		},
		{
			"bufferView":23,
			"componentType":5123,
			"count":36,
			"type":"SCALAR"
		}
	],
	"bufferViews":[
		{
			"buffer":0,
			"byteLength":192,
			"byteOffset":0,
			"target":34962
		},
		{
			"buffer":0,
			"byteLength":192,
			"byteOffset":192,
			"target":34962
		},
		{
			"buffer":0,
			"byteLength":128,
			"byteOffset":384,
			"target":34962
		},
		{
			"buffer":0,
			"byteLength":48,
			"byteOffset":512,
			"target":34963
		},
		{
			"buffer":0,
			"byteLength":21696,
			"byteOffset":560,
			"target":34962
		},
		{
			"buffer":0,
			"byteLength":21696,
			"byteOffset":22256,
			"target":34962
		},
		{
			"buffer":0,
			"byteLength":14464,
			"byteOffset":43952,
			"target":34962
		},
		{
			"buffer":0,
			"byteLength":5388,
			"byteOffset":58416,
			"target":34963
		},
		{
			"buffer":0,
			"byteLength":576,
			"byteOffset":63804,
			"target":34962
		},
		{
			"buffer":0,
			"byteLength":576,
			"byteOffset":64380,
			"target":34962
		},
		{
			"buffer":0,
			"byteLength":384,
			"byteOffset":64956,
			"target":34962
		},
		{
			"buffer":0,
			"byteLength":96,
			"byteOffset":65340,
			"target":34963
		},
		{
			"buffer":0,
			"byteLength":768,
			"byteOffset":65436,
			"target":34962
		},
		{
			"buffer":0,
			"byteLength":768,
			"byteOffset":66204,
			"target":34962
		},
		{
			"buffer":0,
			"byteLength":512,
			"byteOffset":66972,
			"target":34962
		},
		{
			"buffer":0,
			"byteLength":192,
			"byteOffset":67484,
			"target":34963
		},
		{
			"buffer":0,
			"byteLength":552,
			"byteOffset":67676,
			"target":34962
		},
		{
			"buffer":0,
			"byteLength":552,
			"byteOffset":68228,
			"target":34962
		},
		{
			"buffer":0,
			"byteLength":368,
			"byteOffset":68780,
			"target":34962
		},
		{
			"buffer":0,
			"byteLength":132,
			"byteOffset":69148,
			"target":34963
		},
		{
			"buffer":0,
			"byteLength":288,
			"byteOffset":69280,
			"target":34962
		},
		{
			"buffer":0,
			"byteLength":288,
			"byteOffset":69568,
			"target":34962
		},
		{
			"buffer":0,
			"byteLength":192,
			"byteOffset":69856,
			"target":34962
		},
		{
			"buffer":0,
			"byteLength":72,
			"byteOffset":70048,
			"target":34963
		}
	],
	"buffers":[
		{
			"byteLength":70120,
			"uri":"monkey.bin"
		}
	]
}
