{
	"asset":{
		"generator":"Khronos glTF Blender I/O v4.3.47",
		"version":"2.0"
	},
	"extensionsUsed":[
		"KHR_lights_punctual"
	],
	"extensionsRequired":[
		"KHR_lights_punctual"
	],
	"extensions":{
		"KHR_lights_punctual":{
			"lights":[
				{
					"color":[
						1,
						1,
						1
					],
					"intensity":108702.82613176452,
					"type":"point",
					"name":"Light"
				}
			]
		}
	},
	"scene":0,
	"scenes":[
		{
			"name":"Scene",
			"nodes":[
				0,
				1,
				2,
				3
			]
		}
	],
	"nodes":[
		{
			"extensions":{
				"KHR_lights_punctual":{
					"light":0
				}
			},
			"name":"Light",
			"rotation":[
				-0.28416627645492554,
				0.7269423007965088,
				0.34203392267227173,
				0.5232754945755005
			],
			"translation":[
				7.292407989501953,
				10.828376770019531,
				-5.091681957244873
			]
		},
		{
			"camera":0,
			"name":"Camera",
			"rotation":[
				-0.20776405930519104,
				-0.28882521390914917,
				-0.06436173617839813,
				0.9323475360870361
			],
			"translation":[
				-12.435379028320312,
				18.29086685180664,
				26.694570541381836
			]
		},
		{
			"mesh":0,
			"name":"Suzanne"
		},
		{
			"mesh":1,
			"name":"Plane"
		}
	],
	"cameras":[
		{
			"name":"Camera",
			"perspective":{
				"aspectRatio":1.7777777777777777,
				"yfov":0.4234914516537033,
				"zfar":100,
				"znear":0.10000000149011612
			},
			"type":"perspective"
		}
	],
	"materials":[
		{
			"doubleSided":true,
			"name":"Blue",
			"pbrMetallicRoughness":{
				"baseColorFactor":[
					0.036888837814331055,
					0.03820417448878288,
					0.6239606738090515,
					1
				],
				"metallicFactor":0,
				"roughnessFactor":0.5
			}
		},
		{
			"doubleSided":true,
			"name":"Material",
			"pbrMetallicRoughness":{
				"baseColorFactor":[
					0.800000011920929,
					0.800000011920929,
					0.800000011920929,
					1
				],
				"metallicFactor":0
			}
		}
	],
	"meshes":[
		{
			"name":"Suzanne.001",
			"primitives":[
				{
					"attributes":{
						"POSITION":0,
						"NORMAL":1,
						"TEXCOORD_0":2
					},
					"indices":3,
					"material":0
				}
			]
		},
		{
			"name":"Plane.001",
			"primitives":[
				{
					"attributes":{
						"POSITION":4,
						"NORMAL":5,
						"TEXCOORD_0":6
					},
					"indices":7,
					"material":1
				}
			]
		}
	],
	"accessors":[
		{
			"bufferView":0,
			"componentType":5126,
			"count":787200,
			"max":[
				24.46518898010254,
				1.8004846572875977,
				1.1328721046447754
			],
			"min":[
				-1.3488285541534424,
				0.0961645245552063,
				-19.803386688232422
			],
			"type":"VEC3"
		},
		{
			"bufferView":1,
			"componentType":5126,
			"count":787200,
			"type":"VEC3"
		},
		{
			"bufferView":2,
			"componentType":5126,
			"count":787200,
			"type":"VEC2"
		},
		{
			"bufferView":3,
			"componentType":5125,
			"count":1180800,
			"type":"SCALAR"
		},
		{
			"bufferView":4,
			"componentType":5126,
			"count":1089,
			"max":[
				25.19173812866211,
				-4.76837158203125e-07,
				2.185556411743164
			],
			"min":[
				-2.017214775085449,
				-4.76837158203125e-07,
				-21.160938262939453
			],
			"type":"VEC3"
		},
		{
			"bufferView":5,
			"componentType":5126,
			"count":1089,
			"type":"VEC3"
		},
		{
			"bufferView":6,
			"componentType":5126,
			"count":1089,
			"type":"VEC2"
		},
		{
			"bufferView":7,
			"componentType":5123,
			"count":6144,
			"type":"SCALAR"
		}
	],
	"bufferViews":[
		{
			"buffer":0,
			"byteLength":9446400,
			"byteOffset":0,
			"target":34962
		},
		{
			"buffer":0,
			"byteLength":9446400,
			"byteOffset":9446400,
			"target":34962
		},
		{
			"buffer":0,
			"byteLength":6297600,
			"byteOffset":18892800,
			"target":34962
		},
		{
			"buffer":0,
			"byteLength":4723200,
			"byteOffset":25190400,
			"target":34963
		},
		{
			"buffer":0,
			"byteLength":13068,
			"byteOffset":29913600,
			"target":34962
		},
		{
			"buffer":0,
			"byteLength":13068,
			"byteOffset":29926668,
			"target":34962
		},
		{
			"buffer":0,
			"byteLength":8712,
			"byteOffset":29939736,
			"target":34962
		},
		{
			"buffer":0,
			"byteLength":12288,
			"byteOffset":29948448,
			"target":34963
		}
	],
	"buffers":[
		{
			"byteLength":29960736,
			"uri":"simple.bin"
		}
	]
}
